<?xml version="1.0" encoding="UTF-8"?>
<svg xmlns="http://www.w3.org/2000/svg" xmlns:xlink="http://www.w3.org/1999/xlink" width="360pt" height="216pt" viewBox="0 0 360 216">
<defs>
<g>
<g id="glyph-0-0">
<path d="M 0.28125 0 L 0.28125 -6.3125 L 5.296875 -6.3125 L 5.296875 0 Z M 4.5 -0.796875 L 4.5 -5.515625 L 1.078125 -5.515625 L 1.078125 -0.796875 Z M 4.5 -0.796875 "/>
</g>
<g id="glyph-0-1">
<path d="M 2.375 -6.15625 C 3.175781 -6.15625 3.753906 -5.828125 4.109375 -5.171875 C 4.378906 -4.660156 4.515625 -3.960938 4.515625 -3.078125 C 4.515625 -2.242188 4.390625 -1.554688 4.140625 -1.015625 C 3.785156 -0.222656 3.195312 0.171875 2.375 0.171875 C 1.632812 0.171875 1.082031 -0.148438 0.71875 -0.796875 C 0.425781 -1.328125 0.28125 -2.046875 0.28125 -2.953125 C 0.28125 -3.648438 0.367188 -4.25 0.546875 -4.75 C 0.878906 -5.6875 1.488281 -6.15625 2.375 -6.15625 Z M 2.375 -0.53125 C 2.769531 -0.53125 3.085938 -0.707031 3.328125 -1.0625 C 3.566406 -1.425781 3.6875 -2.085938 3.6875 -3.046875 C 3.6875 -3.753906 3.597656 -4.332031 3.421875 -4.78125 C 3.253906 -5.226562 2.921875 -5.453125 2.421875 -5.453125 C 1.972656 -5.453125 1.640625 -5.238281 1.421875 -4.8125 C 1.210938 -4.382812 1.109375 -3.753906 1.109375 -2.921875 C 1.109375 -2.296875 1.175781 -1.789062 1.3125 -1.40625 C 1.519531 -0.820312 1.875 -0.53125 2.375 -0.53125 Z M 2.375 -0.53125 "/>
</g>
<g id="glyph-0-2">
<path d="M 0.75 -0.9375 L 1.65625 -0.9375 L 1.65625 0 L 0.75 0 Z M 0.75 -0.9375 "/>
</g>
<g id="glyph-0-3">
<path d="M 0.28125 0 C 0.300781 -0.53125 0.40625 -0.988281 0.59375 -1.375 C 0.789062 -1.769531 1.164062 -2.128906 1.71875 -2.453125 L 2.546875 -2.921875 C 2.910156 -3.140625 3.164062 -3.328125 3.3125 -3.484375 C 3.550781 -3.710938 3.671875 -3.984375 3.671875 -4.296875 C 3.671875 -4.648438 3.5625 -4.929688 3.34375 -5.140625 C 3.132812 -5.359375 2.847656 -5.46875 2.484375 -5.46875 C 1.960938 -5.46875 1.597656 -5.265625 1.390625 -4.859375 C 1.285156 -4.648438 1.226562 -4.351562 1.21875 -3.96875 L 0.421875 -3.96875 C 0.429688 -4.5 0.53125 -4.9375 0.71875 -5.28125 C 1.050781 -5.875 1.644531 -6.171875 2.5 -6.171875 C 3.195312 -6.171875 3.707031 -5.976562 4.03125 -5.59375 C 4.363281 -5.21875 4.53125 -4.796875 4.53125 -4.328125 C 4.53125 -3.835938 4.351562 -3.414062 4 -3.0625 C 3.800781 -2.863281 3.441406 -2.617188 2.921875 -2.328125 L 2.34375 -2 C 2.0625 -1.84375 1.835938 -1.695312 1.671875 -1.5625 C 1.390625 -1.3125 1.210938 -1.035156 1.140625 -0.734375 L 4.5 -0.734375 L 4.5 0 Z M 0.28125 0 "/>
</g>
<g id="glyph-0-4">
<path d="M 1.09375 -1.5625 C 1.132812 -1.125 1.335938 -0.820312 1.703125 -0.65625 C 1.878906 -0.570312 2.09375 -0.53125 2.34375 -0.53125 C 2.800781 -0.53125 3.140625 -0.675781 3.359375 -0.96875 C 3.578125 -1.257812 3.6875 -1.582031 3.6875 -1.9375 C 3.6875 -2.363281 3.554688 -2.691406 3.296875 -2.921875 C 3.035156 -3.160156 2.71875 -3.28125 2.34375 -3.28125 C 2.082031 -3.28125 1.851562 -3.226562 1.65625 -3.125 C 1.46875 -3.019531 1.304688 -2.878906 1.171875 -2.703125 L 0.5 -2.734375 L 0.96875 -6.046875 L 4.171875 -6.046875 L 4.171875 -5.296875 L 1.5625 -5.296875 L 1.296875 -3.59375 C 1.429688 -3.695312 1.566406 -3.773438 1.703125 -3.828125 C 1.929688 -3.929688 2.195312 -3.984375 2.5 -3.984375 C 3.0625 -3.984375 3.535156 -3.800781 3.921875 -3.4375 C 4.316406 -3.070312 4.515625 -2.609375 4.515625 -2.046875 C 4.515625 -1.460938 4.332031 -0.945312 3.96875 -0.5 C 3.613281 -0.0625 3.046875 0.15625 2.265625 0.15625 C 1.753906 0.15625 1.304688 0.0117188 0.921875 -0.265625 C 0.546875 -0.546875 0.332031 -0.976562 0.28125 -1.5625 Z M 1.09375 -1.5625 "/>
</g>
<g id="glyph-0-5">
<path d="M 4.59375 -6.046875 L 4.59375 -5.375 C 4.394531 -5.175781 4.128906 -4.835938 3.796875 -4.359375 C 3.472656 -3.890625 3.1875 -3.378906 2.9375 -2.828125 C 2.6875 -2.296875 2.5 -1.8125 2.375 -1.375 C 2.289062 -1.082031 2.179688 -0.625 2.046875 0 L 1.203125 0 C 1.390625 -1.175781 1.816406 -2.34375 2.484375 -3.5 C 2.878906 -4.1875 3.289062 -4.773438 3.71875 -5.265625 L 0.328125 -5.265625 L 0.328125 -6.046875 Z M 4.59375 -6.046875 "/>
</g>
<g id="glyph-0-6">
<path d="M 0.84375 -4.359375 L 0.84375 -4.953125 C 1.394531 -5.003906 1.78125 -5.09375 2 -5.21875 C 2.226562 -5.34375 2.394531 -5.644531 2.5 -6.125 L 3.109375 -6.125 L 3.109375 0 L 2.296875 0 L 2.296875 -4.359375 Z M 0.84375 -4.359375 "/>
</g>
<g id="glyph-0-7">
<path d="M 2.28125 0.171875 C 1.550781 0.171875 1.019531 -0.0234375 0.6875 -0.421875 C 0.363281 -0.828125 0.203125 -1.316406 0.203125 -1.890625 L 1.015625 -1.890625 C 1.046875 -1.492188 1.117188 -1.203125 1.234375 -1.015625 C 1.441406 -0.691406 1.804688 -0.53125 2.328125 -0.53125 C 2.734375 -0.53125 3.054688 -0.640625 3.296875 -0.859375 C 3.546875 -1.078125 3.671875 -1.359375 3.671875 -1.703125 C 3.671875 -2.128906 3.539062 -2.425781 3.28125 -2.59375 C 3.03125 -2.757812 2.671875 -2.84375 2.203125 -2.84375 C 2.148438 -2.84375 2.097656 -2.84375 2.046875 -2.84375 C 1.992188 -2.84375 1.941406 -2.84375 1.890625 -2.84375 L 1.890625 -3.515625 C 1.972656 -3.515625 2.039062 -3.507812 2.09375 -3.5 C 2.144531 -3.5 2.203125 -3.5 2.265625 -3.5 C 2.554688 -3.5 2.796875 -3.546875 2.984375 -3.640625 C 3.304688 -3.796875 3.46875 -4.082031 3.46875 -4.5 C 3.46875 -4.800781 3.359375 -5.035156 3.140625 -5.203125 C 2.921875 -5.367188 2.671875 -5.453125 2.390625 -5.453125 C 1.867188 -5.453125 1.507812 -5.28125 1.3125 -4.9375 C 1.207031 -4.75 1.144531 -4.476562 1.125 -4.125 L 0.359375 -4.125 C 0.359375 -4.582031 0.453125 -4.972656 0.640625 -5.296875 C 0.953125 -5.867188 1.503906 -6.15625 2.296875 -6.15625 C 2.929688 -6.15625 3.421875 -6.015625 3.765625 -5.734375 C 4.109375 -5.460938 4.28125 -5.0625 4.28125 -4.53125 C 4.28125 -4.144531 4.175781 -3.835938 3.96875 -3.609375 C 3.84375 -3.460938 3.679688 -3.347656 3.484375 -3.265625 C 3.804688 -3.171875 4.054688 -3 4.234375 -2.75 C 4.421875 -2.5 4.515625 -2.191406 4.515625 -1.828125 C 4.515625 -1.234375 4.316406 -0.75 3.921875 -0.375 C 3.535156 -0.0078125 2.988281 0.171875 2.28125 0.171875 Z M 2.28125 0.171875 "/>
</g>
<g id="glyph-0-8">
<path d="M 2.34375 -4.734375 C 2.863281 -4.734375 3.285156 -4.609375 3.609375 -4.359375 C 3.929688 -4.109375 4.125 -3.671875 4.1875 -3.046875 L 3.4375 -3.046875 C 3.394531 -3.335938 3.289062 -3.578125 3.125 -3.765625 C 2.957031 -3.953125 2.695312 -4.046875 2.34375 -4.046875 C 1.851562 -4.046875 1.5 -3.800781 1.28125 -3.3125 C 1.144531 -3.007812 1.078125 -2.628906 1.078125 -2.171875 C 1.078125 -1.703125 1.171875 -1.3125 1.359375 -1 C 1.554688 -0.6875 1.867188 -0.53125 2.296875 -0.53125 C 2.609375 -0.53125 2.859375 -0.625 3.046875 -0.8125 C 3.234375 -1.007812 3.363281 -1.28125 3.4375 -1.625 L 4.1875 -1.625 C 4.101562 -1.019531 3.890625 -0.570312 3.546875 -0.28125 C 3.203125 0 2.765625 0.140625 2.234375 0.140625 C 1.628906 0.140625 1.144531 -0.078125 0.78125 -0.515625 C 0.425781 -0.960938 0.25 -1.515625 0.25 -2.171875 C 0.25 -2.984375 0.445312 -3.613281 0.84375 -4.0625 C 1.238281 -4.507812 1.738281 -4.734375 2.34375 -4.734375 Z M 2.21875 -4.71875 Z M 2.21875 -4.71875 "/>
</g>
<g id="glyph-0-9">
<path d="M 2.390625 -0.5 C 2.898438 -0.5 3.25 -0.691406 3.4375 -1.078125 C 3.632812 -1.460938 3.734375 -1.894531 3.734375 -2.375 C 3.734375 -2.800781 3.664062 -3.148438 3.53125 -3.421875 C 3.3125 -3.847656 2.9375 -4.0625 2.40625 -4.0625 C 1.925781 -4.0625 1.578125 -3.878906 1.359375 -3.515625 C 1.148438 -3.160156 1.046875 -2.726562 1.046875 -2.21875 C 1.046875 -1.726562 1.148438 -1.316406 1.359375 -0.984375 C 1.578125 -0.660156 1.921875 -0.5 2.390625 -0.5 Z M 2.421875 -4.734375 C 3.015625 -4.734375 3.515625 -4.535156 3.921875 -4.140625 C 4.335938 -3.742188 4.546875 -3.160156 4.546875 -2.390625 C 4.546875 -1.648438 4.363281 -1.035156 4 -0.546875 C 3.632812 -0.0664062 3.070312 0.171875 2.3125 0.171875 C 1.6875 0.171875 1.1875 -0.0390625 0.8125 -0.46875 C 0.4375 -0.894531 0.25 -1.472656 0.25 -2.203125 C 0.25 -2.972656 0.445312 -3.585938 0.84375 -4.046875 C 1.238281 -4.503906 1.765625 -4.734375 2.421875 -4.734375 Z M 2.390625 -4.71875 Z M 2.390625 -4.71875 "/>
</g>
<g id="glyph-0-10">
<path d="M 0.5625 -4.59375 L 1.296875 -4.59375 L 1.296875 -3.953125 C 1.515625 -4.210938 1.742188 -4.398438 1.984375 -4.515625 C 2.234375 -4.640625 2.507812 -4.703125 2.8125 -4.703125 C 3.457031 -4.703125 3.894531 -4.472656 4.125 -4.015625 C 4.25 -3.765625 4.3125 -3.410156 4.3125 -2.953125 L 4.3125 0 L 3.53125 0 L 3.53125 -2.90625 C 3.53125 -3.175781 3.488281 -3.398438 3.40625 -3.578125 C 3.269531 -3.859375 3.019531 -4 2.65625 -4 C 2.476562 -4 2.328125 -3.984375 2.203125 -3.953125 C 1.992188 -3.890625 1.8125 -3.765625 1.65625 -3.578125 C 1.519531 -3.421875 1.429688 -3.257812 1.390625 -3.09375 C 1.359375 -2.9375 1.34375 -2.707031 1.34375 -2.40625 L 1.34375 0 L 0.5625 0 Z M 2.390625 -4.71875 Z M 2.390625 -4.71875 "/>
</g>
<g id="glyph-0-11">
<path d="M 1.03125 -1.4375 C 1.050781 -1.1875 1.113281 -0.988281 1.21875 -0.84375 C 1.414062 -0.601562 1.753906 -0.484375 2.234375 -0.484375 C 2.515625 -0.484375 2.765625 -0.539062 2.984375 -0.65625 C 3.203125 -0.78125 3.3125 -0.972656 3.3125 -1.234375 C 3.3125 -1.429688 3.222656 -1.582031 3.046875 -1.6875 C 2.941406 -1.75 2.722656 -1.820312 2.390625 -1.90625 L 1.78125 -2.0625 C 1.382812 -2.164062 1.09375 -2.273438 0.90625 -2.390625 C 0.570312 -2.597656 0.40625 -2.890625 0.40625 -3.265625 C 0.40625 -3.691406 0.5625 -4.039062 0.875 -4.3125 C 1.195312 -4.582031 1.617188 -4.71875 2.140625 -4.71875 C 2.835938 -4.71875 3.335938 -4.515625 3.640625 -4.109375 C 3.835938 -3.847656 3.929688 -3.570312 3.921875 -3.28125 L 3.203125 -3.28125 C 3.179688 -3.457031 3.117188 -3.613281 3.015625 -3.75 C 2.835938 -3.957031 2.53125 -4.0625 2.09375 -4.0625 C 1.800781 -4.0625 1.578125 -4.003906 1.421875 -3.890625 C 1.273438 -3.773438 1.203125 -3.628906 1.203125 -3.453125 C 1.203125 -3.253906 1.300781 -3.09375 1.5 -2.96875 C 1.613281 -2.894531 1.78125 -2.832031 2 -2.78125 L 2.515625 -2.65625 C 3.066406 -2.519531 3.4375 -2.390625 3.625 -2.265625 C 3.925781 -2.066406 4.078125 -1.753906 4.078125 -1.328125 C 4.078125 -0.921875 3.921875 -0.566406 3.609375 -0.265625 C 3.304688 0.0234375 2.832031 0.171875 2.1875 0.171875 C 1.507812 0.171875 1.023438 0.0195312 0.734375 -0.28125 C 0.453125 -0.59375 0.300781 -0.976562 0.28125 -1.4375 Z M 2.171875 -4.71875 Z M 2.171875 -4.71875 "/>
</g>
<g id="glyph-0-12">
<path d="M 1.15625 -1.21875 C 1.15625 -1 1.238281 -0.820312 1.40625 -0.6875 C 1.570312 -0.5625 1.765625 -0.5 1.984375 -0.5 C 2.253906 -0.5 2.519531 -0.5625 2.78125 -0.6875 C 3.207031 -0.894531 3.421875 -1.238281 3.421875 -1.71875 L 3.421875 -2.34375 C 3.328125 -2.28125 3.203125 -2.226562 3.046875 -2.1875 C 2.898438 -2.144531 2.753906 -2.117188 2.609375 -2.109375 L 2.140625 -2.046875 C 1.867188 -2.003906 1.660156 -1.945312 1.515625 -1.875 C 1.273438 -1.738281 1.15625 -1.519531 1.15625 -1.21875 Z M 3.03125 -2.78125 C 3.207031 -2.8125 3.328125 -2.890625 3.390625 -3.015625 C 3.421875 -3.078125 3.4375 -3.175781 3.4375 -3.3125 C 3.4375 -3.570312 3.34375 -3.757812 3.15625 -3.875 C 2.96875 -4 2.703125 -4.0625 2.359375 -4.0625 C 1.953125 -4.0625 1.664062 -3.953125 1.5 -3.734375 C 1.40625 -3.609375 1.34375 -3.429688 1.3125 -3.203125 L 0.59375 -3.203125 C 0.601562 -3.765625 0.785156 -4.15625 1.140625 -4.375 C 1.492188 -4.601562 1.90625 -4.71875 2.375 -4.71875 C 2.914062 -4.71875 3.351562 -4.613281 3.6875 -4.40625 C 4.019531 -4.195312 4.1875 -3.875 4.1875 -3.4375 L 4.1875 -0.796875 C 4.1875 -0.710938 4.203125 -0.644531 4.234375 -0.59375 C 4.273438 -0.550781 4.347656 -0.53125 4.453125 -0.53125 C 4.484375 -0.53125 4.519531 -0.53125 4.5625 -0.53125 C 4.601562 -0.53125 4.648438 -0.535156 4.703125 -0.546875 L 4.703125 0.015625 C 4.578125 0.0546875 4.484375 0.078125 4.421875 0.078125 C 4.359375 0.0859375 4.273438 0.09375 4.171875 0.09375 C 3.898438 0.09375 3.707031 0 3.59375 -0.1875 C 3.53125 -0.28125 3.484375 -0.421875 3.453125 -0.609375 C 3.296875 -0.398438 3.070312 -0.21875 2.78125 -0.0625 C 2.488281 0.0820312 2.160156 0.15625 1.796875 0.15625 C 1.367188 0.15625 1.019531 0.0234375 0.75 -0.234375 C 0.488281 -0.492188 0.359375 -0.816406 0.359375 -1.203125 C 0.359375 -1.628906 0.488281 -1.957031 0.75 -2.1875 C 1.019531 -2.425781 1.367188 -2.578125 1.796875 -2.640625 Z M 2.390625 -4.71875 Z M 2.390625 -4.71875 "/>
</g>
<g id="glyph-0-13">
<path d="M 0.71875 -5.890625 L 1.5 -5.890625 L 1.5 -4.59375 L 2.234375 -4.59375 L 2.234375 -3.96875 L 1.5 -3.96875 L 1.5 -0.96875 C 1.5 -0.800781 1.554688 -0.691406 1.671875 -0.640625 C 1.722656 -0.609375 1.820312 -0.59375 1.96875 -0.59375 C 2 -0.59375 2.035156 -0.59375 2.078125 -0.59375 C 2.128906 -0.59375 2.179688 -0.597656 2.234375 -0.609375 L 2.234375 0 C 2.148438 0.0195312 2.054688 0.0351562 1.953125 0.046875 C 1.859375 0.0664062 1.757812 0.078125 1.65625 0.078125 C 1.289062 0.078125 1.039062 -0.015625 0.90625 -0.203125 C 0.78125 -0.390625 0.71875 -0.628906 0.71875 -0.921875 L 0.71875 -3.96875 L 0.09375 -3.96875 L 0.09375 -4.59375 L 0.71875 -4.59375 Z M 0.71875 -5.890625 "/>
</g>
<g id="glyph-0-14">
<path d="M 2.515625 -0.515625 C 2.867188 -0.515625 3.164062 -0.664062 3.40625 -0.96875 C 3.644531 -1.269531 3.765625 -1.722656 3.765625 -2.328125 C 3.765625 -2.691406 3.710938 -3.003906 3.609375 -3.265625 C 3.410156 -3.773438 3.046875 -4.03125 2.515625 -4.03125 C 1.972656 -4.03125 1.601562 -3.765625 1.40625 -3.234375 C 1.300781 -2.941406 1.25 -2.578125 1.25 -2.140625 C 1.25 -1.785156 1.300781 -1.484375 1.40625 -1.234375 C 1.601562 -0.753906 1.972656 -0.515625 2.515625 -0.515625 Z M 0.5 -4.578125 L 1.265625 -4.578125 L 1.265625 -3.96875 C 1.410156 -4.175781 1.578125 -4.335938 1.765625 -4.453125 C 2.023438 -4.628906 2.332031 -4.71875 2.6875 -4.71875 C 3.207031 -4.71875 3.648438 -4.515625 4.015625 -4.109375 C 4.378906 -3.710938 4.5625 -3.144531 4.5625 -2.40625 C 4.5625 -1.394531 4.296875 -0.675781 3.765625 -0.25 C 3.429688 0.0195312 3.046875 0.15625 2.609375 0.15625 C 2.265625 0.15625 1.972656 0.0742188 1.734375 -0.078125 C 1.597656 -0.160156 1.445312 -0.304688 1.28125 -0.515625 L 1.28125 1.828125 L 0.5 1.828125 Z M 0.5 -4.578125 "/>
</g>
<g id="glyph-0-15">
<path d="M 1.34375 -4.59375 L 1.34375 -1.546875 C 1.34375 -1.304688 1.378906 -1.113281 1.453125 -0.96875 C 1.585938 -0.695312 1.84375 -0.5625 2.21875 -0.5625 C 2.757812 -0.5625 3.125 -0.800781 3.3125 -1.28125 C 3.425781 -1.539062 3.484375 -1.894531 3.484375 -2.34375 L 3.484375 -4.59375 L 4.25 -4.59375 L 4.25 0 L 3.515625 0 L 3.53125 -0.671875 C 3.425781 -0.503906 3.300781 -0.359375 3.15625 -0.234375 C 2.863281 0.00390625 2.503906 0.125 2.078125 0.125 C 1.421875 0.125 0.976562 -0.09375 0.75 -0.53125 C 0.613281 -0.769531 0.546875 -1.082031 0.546875 -1.46875 L 0.546875 -4.59375 Z M 2.40625 -4.71875 Z M 2.40625 -4.71875 "/>
</g>
<g id="glyph-0-16">
<path d="M 2.484375 -4.703125 C 2.804688 -4.703125 3.117188 -4.625 3.421875 -4.46875 C 3.734375 -4.320312 3.96875 -4.125 4.125 -3.875 C 4.28125 -3.644531 4.382812 -3.375 4.4375 -3.0625 C 4.488281 -2.851562 4.515625 -2.515625 4.515625 -2.046875 L 1.140625 -2.046875 C 1.148438 -1.585938 1.257812 -1.210938 1.46875 -0.921875 C 1.675781 -0.640625 1.992188 -0.5 2.421875 -0.5 C 2.828125 -0.5 3.148438 -0.632812 3.390625 -0.90625 C 3.523438 -1.0625 3.625 -1.238281 3.6875 -1.4375 L 4.453125 -1.4375 C 4.429688 -1.269531 4.363281 -1.082031 4.25 -0.875 C 4.132812 -0.664062 4.003906 -0.5 3.859375 -0.375 C 3.628906 -0.144531 3.34375 0.0078125 3 0.09375 C 2.8125 0.132812 2.597656 0.15625 2.359375 0.15625 C 1.785156 0.15625 1.300781 -0.0507812 0.90625 -0.46875 C 0.507812 -0.882812 0.3125 -1.46875 0.3125 -2.21875 C 0.3125 -2.945312 0.507812 -3.539062 0.90625 -4 C 1.3125 -4.46875 1.835938 -4.703125 2.484375 -4.703125 Z M 3.71875 -2.671875 C 3.6875 -3.003906 3.613281 -3.269531 3.5 -3.46875 C 3.28125 -3.84375 2.925781 -4.03125 2.4375 -4.03125 C 2.082031 -4.03125 1.785156 -3.898438 1.546875 -3.640625 C 1.304688 -3.390625 1.175781 -3.066406 1.15625 -2.671875 Z M 2.40625 -4.71875 Z M 2.40625 -4.71875 "/>
</g>
<g id="glyph-0-17">
<path d="M 0.9375 -4.59375 L 2.171875 -0.859375 L 3.453125 -4.59375 L 4.296875 -4.59375 L 2.5625 0 L 1.75 0 L 0.046875 -4.59375 Z M 0.9375 -4.59375 "/>
</g>
<g id="glyph-0-18">
<path d="M 0.921875 -4.59375 L 1.8125 -0.96875 L 2.703125 -4.59375 L 3.578125 -4.59375 L 4.46875 -1 L 5.421875 -4.59375 L 6.1875 -4.59375 L 4.859375 0 L 4.046875 0 L 3.109375 -3.5625 L 2.203125 0 L 1.40625 0 L 0.078125 -4.59375 Z M 0.921875 -4.59375 "/>
</g>
<g id="glyph-0-19">
<path d="M 0.59375 -6.3125 L 1.359375 -6.3125 L 1.359375 0 L 0.59375 0 Z M 0.59375 -6.3125 "/>
</g>
<g id="glyph-1-0">
<path d="M 0.359375 0 L 0.359375 -7.890625 L 6.625 -7.890625 L 6.625 0 Z M 5.625 -0.984375 L 5.625 -6.90625 L 1.34375 -6.90625 L 1.34375 -0.984375 Z M 5.625 -0.984375 "/>
</g>
<g id="glyph-1-1">
<path d="M 0.734375 -5.75 L 1.65625 -5.75 L 1.65625 -4.765625 C 1.726562 -4.953125 1.910156 -5.179688 2.203125 -5.453125 C 2.492188 -5.734375 2.832031 -5.875 3.21875 -5.875 C 3.238281 -5.875 3.269531 -5.875 3.3125 -5.875 C 3.351562 -5.875 3.425781 -5.867188 3.53125 -5.859375 L 3.53125 -4.828125 C 3.476562 -4.835938 3.425781 -4.84375 3.375 -4.84375 C 3.320312 -4.851562 3.269531 -4.859375 3.21875 -4.859375 C 2.726562 -4.859375 2.351562 -4.703125 2.09375 -4.390625 C 1.832031 -4.078125 1.703125 -3.71875 1.703125 -3.3125 L 1.703125 0 L 0.734375 0 Z M 0.734375 -5.75 "/>
</g>
<g id="glyph-1-2">
<path d="M 3.109375 -5.875 C 3.515625 -5.875 3.90625 -5.78125 4.28125 -5.59375 C 4.664062 -5.40625 4.960938 -5.15625 5.171875 -4.84375 C 5.359375 -4.5625 5.484375 -4.222656 5.546875 -3.828125 C 5.609375 -3.566406 5.640625 -3.144531 5.640625 -2.5625 L 1.421875 -2.5625 C 1.441406 -1.976562 1.578125 -1.507812 1.828125 -1.15625 C 2.085938 -0.8125 2.488281 -0.640625 3.03125 -0.640625 C 3.539062 -0.640625 3.945312 -0.804688 4.25 -1.140625 C 4.414062 -1.328125 4.535156 -1.550781 4.609375 -1.8125 L 5.5625 -1.8125 C 5.53125 -1.59375 5.441406 -1.351562 5.296875 -1.09375 C 5.160156 -0.832031 5.003906 -0.625 4.828125 -0.46875 C 4.535156 -0.175781 4.175781 0.0195312 3.75 0.125 C 3.507812 0.175781 3.242188 0.203125 2.953125 0.203125 C 2.234375 0.203125 1.625 -0.0546875 1.125 -0.578125 C 0.632812 -1.097656 0.390625 -1.828125 0.390625 -2.765625 C 0.390625 -3.691406 0.640625 -4.441406 1.140625 -5.015625 C 1.640625 -5.585938 2.296875 -5.875 3.109375 -5.875 Z M 4.640625 -3.328125 C 4.609375 -3.753906 4.519531 -4.09375 4.375 -4.34375 C 4.101562 -4.800781 3.660156 -5.03125 3.046875 -5.03125 C 2.597656 -5.03125 2.222656 -4.867188 1.921875 -4.546875 C 1.628906 -4.234375 1.472656 -3.828125 1.453125 -3.328125 Z M 3.015625 -5.890625 Z M 3.015625 -5.890625 "/>
</g>
<g id="glyph-1-3">
<path d="M 0.734375 -7.890625 L 1.703125 -7.890625 L 1.703125 0 L 0.734375 0 Z M 0.734375 -7.890625 "/>
</g>
<g id="glyph-1-4">
<path d="M 1.453125 -1.53125 C 1.453125 -1.25 1.550781 -1.023438 1.75 -0.859375 C 1.957031 -0.703125 2.203125 -0.625 2.484375 -0.625 C 2.816406 -0.625 3.144531 -0.703125 3.46875 -0.859375 C 4.007812 -1.117188 4.28125 -1.550781 4.28125 -2.15625 L 4.28125 -2.921875 C 4.15625 -2.847656 4 -2.785156 3.8125 -2.734375 C 3.632812 -2.691406 3.453125 -2.65625 3.265625 -2.625 L 2.6875 -2.5625 C 2.332031 -2.507812 2.066406 -2.4375 1.890625 -2.34375 C 1.597656 -2.164062 1.453125 -1.894531 1.453125 -1.53125 Z M 3.796875 -3.484375 C 4.015625 -3.515625 4.160156 -3.609375 4.234375 -3.765625 C 4.273438 -3.847656 4.296875 -3.972656 4.296875 -4.140625 C 4.296875 -4.460938 4.175781 -4.695312 3.9375 -4.84375 C 3.707031 -5 3.375 -5.078125 2.9375 -5.078125 C 2.4375 -5.078125 2.082031 -4.941406 1.875 -4.671875 C 1.75 -4.515625 1.671875 -4.289062 1.640625 -4 L 0.734375 -4 C 0.753906 -4.707031 0.984375 -5.195312 1.421875 -5.46875 C 1.867188 -5.75 2.382812 -5.890625 2.96875 -5.890625 C 3.644531 -5.890625 4.191406 -5.757812 4.609375 -5.5 C 5.035156 -5.25 5.25 -4.847656 5.25 -4.296875 L 5.25 -0.984375 C 5.25 -0.890625 5.265625 -0.8125 5.296875 -0.75 C 5.335938 -0.6875 5.425781 -0.65625 5.5625 -0.65625 C 5.601562 -0.65625 5.648438 -0.65625 5.703125 -0.65625 C 5.765625 -0.664062 5.820312 -0.675781 5.875 -0.6875 L 5.875 0.03125 C 5.726562 0.0703125 5.613281 0.0976562 5.53125 0.109375 C 5.457031 0.117188 5.351562 0.125 5.21875 0.125 C 4.882812 0.125 4.640625 0.00390625 4.484375 -0.234375 C 4.410156 -0.359375 4.359375 -0.535156 4.328125 -0.765625 C 4.128906 -0.503906 3.84375 -0.28125 3.46875 -0.09375 C 3.101562 0.0898438 2.695312 0.1875 2.25 0.1875 C 1.71875 0.1875 1.28125 0.0234375 0.9375 -0.296875 C 0.601562 -0.617188 0.4375 -1.023438 0.4375 -1.515625 C 0.4375 -2.046875 0.601562 -2.457031 0.9375 -2.75 C 1.269531 -3.039062 1.707031 -3.222656 2.25 -3.296875 Z M 2.984375 -5.890625 Z M 2.984375 -5.890625 "/>
</g>
<g id="glyph-1-5">
<path d="M 0.90625 -7.359375 L 1.875 -7.359375 L 1.875 -5.75 L 2.796875 -5.75 L 2.796875 -4.96875 L 1.875 -4.96875 L 1.875 -1.203125 C 1.875 -1.003906 1.941406 -0.875 2.078125 -0.8125 C 2.160156 -0.769531 2.285156 -0.75 2.453125 -0.75 C 2.503906 -0.75 2.554688 -0.75 2.609375 -0.75 C 2.660156 -0.75 2.722656 -0.753906 2.796875 -0.765625 L 2.796875 0 C 2.679688 0.03125 2.5625 0.0507812 2.4375 0.0625 C 2.320312 0.0820312 2.195312 0.09375 2.0625 0.09375 C 1.613281 0.09375 1.304688 -0.0195312 1.140625 -0.25 C 0.984375 -0.488281 0.90625 -0.789062 0.90625 -1.15625 L 0.90625 -4.96875 L 0.125 -4.96875 L 0.125 -5.75 L 0.90625 -5.75 Z M 0.90625 -7.359375 "/>
</g>
<g id="glyph-1-6">
<path d="M 0.703125 -5.71875 L 1.6875 -5.71875 L 1.6875 0 L 0.703125 0 Z M 0.703125 -7.890625 L 1.6875 -7.890625 L 1.6875 -6.796875 L 0.703125 -6.796875 Z M 0.703125 -7.890625 "/>
</g>
<g id="glyph-1-7">
<path d="M 1.1875 -5.75 L 2.71875 -1.0625 L 4.328125 -5.75 L 5.375 -5.75 L 3.21875 0 L 2.1875 0 L 0.0625 -5.75 Z M 1.1875 -5.75 "/>
</g>
<g id="glyph-1-8">
<path d="M 0 1.375 L 0 0.828125 L 6.125 0.828125 L 6.125 1.375 Z M 0 1.375 "/>
</g>
<g id="glyph-1-9">
<path d="M 0.953125 -6.625 C 0.960938 -7.03125 1.03125 -7.328125 1.15625 -7.515625 C 1.382812 -7.835938 1.820312 -8 2.46875 -8 C 2.53125 -8 2.59375 -8 2.65625 -8 C 2.71875 -8 2.789062 -7.992188 2.875 -7.984375 L 2.875 -7.09375 C 2.769531 -7.101562 2.695312 -7.109375 2.65625 -7.109375 C 2.613281 -7.109375 2.570312 -7.109375 2.53125 -7.109375 C 2.238281 -7.109375 2.0625 -7.03125 2 -6.875 C 1.945312 -6.726562 1.921875 -6.34375 1.921875 -5.71875 L 2.875 -5.71875 L 2.875 -4.96875 L 1.90625 -4.96875 L 1.90625 0 L 0.953125 0 L 0.953125 -4.96875 L 0.15625 -4.96875 L 0.15625 -5.71875 L 0.953125 -5.71875 Z M 0.953125 -6.625 "/>
</g>
<g id="glyph-1-10">
<path d="M 2.984375 -0.625 C 3.628906 -0.625 4.070312 -0.863281 4.3125 -1.34375 C 4.550781 -1.832031 4.671875 -2.375 4.671875 -2.96875 C 4.671875 -3.507812 4.582031 -3.945312 4.40625 -4.28125 C 4.132812 -4.8125 3.664062 -5.078125 3 -5.078125 C 2.40625 -5.078125 1.972656 -4.847656 1.703125 -4.390625 C 1.441406 -3.941406 1.3125 -3.398438 1.3125 -2.765625 C 1.3125 -2.148438 1.441406 -1.640625 1.703125 -1.234375 C 1.972656 -0.828125 2.398438 -0.625 2.984375 -0.625 Z M 3.03125 -5.921875 C 3.769531 -5.921875 4.394531 -5.671875 4.90625 -5.171875 C 5.414062 -4.679688 5.671875 -3.957031 5.671875 -3 C 5.671875 -2.070312 5.445312 -1.304688 5 -0.703125 C 4.550781 -0.0976562 3.851562 0.203125 2.90625 0.203125 C 2.113281 0.203125 1.484375 -0.0625 1.015625 -0.59375 C 0.546875 -1.125 0.3125 -1.84375 0.3125 -2.75 C 0.3125 -3.71875 0.554688 -4.488281 1.046875 -5.0625 C 1.535156 -5.632812 2.195312 -5.921875 3.03125 -5.921875 Z M 3 -5.890625 Z M 3 -5.890625 "/>
</g>
<g id="glyph-1-11">
<path d="M 2.921875 -5.921875 C 3.578125 -5.921875 4.109375 -5.757812 4.515625 -5.4375 C 4.921875 -5.125 5.164062 -4.582031 5.25 -3.8125 L 4.296875 -3.8125 C 4.242188 -4.164062 4.113281 -4.457031 3.90625 -4.6875 C 3.707031 -4.925781 3.378906 -5.046875 2.921875 -5.046875 C 2.304688 -5.046875 1.867188 -4.75 1.609375 -4.15625 C 1.429688 -3.757812 1.34375 -3.273438 1.34375 -2.703125 C 1.34375 -2.128906 1.460938 -1.644531 1.703125 -1.25 C 1.953125 -0.851562 2.335938 -0.65625 2.859375 -0.65625 C 3.265625 -0.65625 3.582031 -0.773438 3.8125 -1.015625 C 4.050781 -1.265625 4.210938 -1.601562 4.296875 -2.03125 L 5.25 -2.03125 C 5.132812 -1.269531 4.863281 -0.710938 4.4375 -0.359375 C 4.007812 -0.00390625 3.457031 0.171875 2.78125 0.171875 C 2.03125 0.171875 1.429688 -0.101562 0.984375 -0.65625 C 0.535156 -1.207031 0.3125 -1.894531 0.3125 -2.71875 C 0.3125 -3.726562 0.554688 -4.515625 1.046875 -5.078125 C 1.535156 -5.640625 2.160156 -5.921875 2.921875 -5.921875 Z M 2.78125 -5.890625 Z M 2.78125 -5.890625 "/>
</g>
<g id="glyph-1-12">
<path d="M 1.28125 -1.8125 C 1.3125 -1.488281 1.394531 -1.238281 1.53125 -1.0625 C 1.769531 -0.75 2.191406 -0.59375 2.796875 -0.59375 C 3.148438 -0.59375 3.460938 -0.671875 3.734375 -0.828125 C 4.003906 -0.984375 4.140625 -1.222656 4.140625 -1.546875 C 4.140625 -1.796875 4.03125 -1.984375 3.8125 -2.109375 C 3.675781 -2.191406 3.398438 -2.285156 2.984375 -2.390625 L 2.21875 -2.578125 C 1.726562 -2.703125 1.367188 -2.835938 1.140625 -2.984375 C 0.722656 -3.253906 0.515625 -3.617188 0.515625 -4.078125 C 0.515625 -4.617188 0.707031 -5.054688 1.09375 -5.390625 C 1.488281 -5.734375 2.019531 -5.90625 2.6875 -5.90625 C 3.550781 -5.90625 4.175781 -5.648438 4.5625 -5.140625 C 4.800781 -4.816406 4.914062 -4.46875 4.90625 -4.09375 L 4 -4.09375 C 3.976562 -4.3125 3.898438 -4.507812 3.765625 -4.6875 C 3.546875 -4.945312 3.160156 -5.078125 2.609375 -5.078125 C 2.242188 -5.078125 1.96875 -5.003906 1.78125 -4.859375 C 1.59375 -4.722656 1.5 -4.539062 1.5 -4.3125 C 1.5 -4.0625 1.625 -3.863281 1.875 -3.71875 C 2.007812 -3.625 2.21875 -3.539062 2.5 -3.46875 L 3.140625 -3.3125 C 3.835938 -3.144531 4.300781 -2.984375 4.53125 -2.828125 C 4.914062 -2.578125 5.109375 -2.191406 5.109375 -1.671875 C 5.109375 -1.148438 4.910156 -0.703125 4.515625 -0.328125 C 4.128906 0.0351562 3.539062 0.21875 2.75 0.21875 C 1.894531 0.21875 1.285156 0.0234375 0.921875 -0.359375 C 0.566406 -0.753906 0.378906 -1.238281 0.359375 -1.8125 Z M 2.71875 -5.890625 Z M 2.71875 -5.890625 "/>
</g>
<g id="glyph-2-0">
<path d="M 0 -0.359375 L -7.890625 -0.359375 L -7.890625 -6.625 L 0 -6.625 Z M -0.984375 -5.625 L -6.90625 -5.625 L -6.90625 -1.34375 L -0.984375 -1.34375 Z M -0.984375 -5.625 "/>
</g>
<g id="glyph-2-1">
<path d="M -5.875 -3.109375 C -5.875 -3.515625 -5.78125 -3.90625 -5.59375 -4.28125 C -5.40625 -4.664062 -5.15625 -4.960938 -4.84375 -5.171875 C -4.5625 -5.359375 -4.222656 -5.484375 -3.828125 -5.546875 C -3.566406 -5.609375 -3.144531 -5.640625 -2.5625 -5.640625 L -2.5625 -1.421875 C -1.976562 -1.441406 -1.507812 -1.578125 -1.15625 -1.828125 C -0.8125 -2.085938 -0.640625 -2.488281 -0.640625 -3.03125 C -0.640625 -3.539062 -0.804688 -3.945312 -1.140625 -4.25 C -1.328125 -4.414062 -1.550781 -4.535156 -1.8125 -4.609375 L -1.8125 -5.5625 C -1.59375 -5.53125 -1.351562 -5.441406 -1.09375 -5.296875 C -0.832031 -5.160156 -0.625 -5.003906 -0.46875 -4.828125 C -0.175781 -4.535156 0.0195312 -4.175781 0.125 -3.75 C 0.175781 -3.507812 0.203125 -3.242188 0.203125 -2.953125 C 0.203125 -2.234375 -0.0546875 -1.625 -0.578125 -1.125 C -1.097656 -0.632812 -1.828125 -0.390625 -2.765625 -0.390625 C -3.691406 -0.390625 -4.441406 -0.640625 -5.015625 -1.140625 C -5.585938 -1.640625 -5.875 -2.296875 -5.875 -3.109375 Z M -3.328125 -4.640625 C -3.753906 -4.609375 -4.09375 -4.519531 -4.34375 -4.375 C -4.800781 -4.101562 -5.03125 -3.660156 -5.03125 -3.046875 C -5.03125 -2.597656 -4.867188 -2.222656 -4.546875 -1.921875 C -4.234375 -1.628906 -3.828125 -1.472656 -3.328125 -1.453125 Z M -5.890625 -3.015625 Z M -5.890625 -3.015625 "/>
</g>
<g id="glyph-2-2">
<path d="M -1.8125 -1.28125 C -1.488281 -1.3125 -1.238281 -1.394531 -1.0625 -1.53125 C -0.75 -1.769531 -0.59375 -2.191406 -0.59375 -2.796875 C -0.59375 -3.148438 -0.671875 -3.460938 -0.828125 -3.734375 C -0.984375 -4.003906 -1.222656 -4.140625 -1.546875 -4.140625 C -1.796875 -4.140625 -1.984375 -4.03125 -2.109375 -3.8125 C -2.191406 -3.675781 -2.285156 -3.398438 -2.390625 -2.984375 L -2.578125 -2.21875 C -2.703125 -1.726562 -2.835938 -1.367188 -2.984375 -1.140625 C -3.253906 -0.722656 -3.617188 -0.515625 -4.078125 -0.515625 C -4.617188 -0.515625 -5.054688 -0.707031 -5.390625 -1.09375 C -5.734375 -1.488281 -5.90625 -2.019531 -5.90625 -2.6875 C -5.90625 -3.550781 -5.648438 -4.175781 -5.140625 -4.5625 C -4.816406 -4.800781 -4.46875 -4.914062 -4.09375 -4.90625 L -4.09375 -4 C -4.3125 -3.976562 -4.507812 -3.898438 -4.6875 -3.765625 C -4.945312 -3.546875 -5.078125 -3.160156 -5.078125 -2.609375 C -5.078125 -2.242188 -5.003906 -1.96875 -4.859375 -1.78125 C -4.722656 -1.59375 -4.539062 -1.5 -4.3125 -1.5 C -4.0625 -1.5 -3.863281 -1.625 -3.71875 -1.875 C -3.625 -2.007812 -3.539062 -2.21875 -3.46875 -2.5 L -3.3125 -3.140625 C -3.144531 -3.835938 -2.984375 -4.300781 -2.828125 -4.53125 C -2.578125 -4.914062 -2.191406 -5.109375 -1.671875 -5.109375 C -1.148438 -5.109375 -0.703125 -4.910156 -0.328125 -4.515625 C 0.0351562 -4.128906 0.21875 -3.539062 0.21875 -2.75 C 0.21875 -1.894531 0.0234375 -1.285156 -0.359375 -0.921875 C -0.753906 -0.566406 -1.238281 -0.378906 -1.8125 -0.359375 Z M -5.890625 -2.71875 Z M -5.890625 -2.71875 "/>
</g>
<g id="glyph-2-3">
<path d="M -7.359375 -0.90625 L -7.359375 -1.875 L -5.75 -1.875 L -5.75 -2.796875 L -4.96875 -2.796875 L -4.96875 -1.875 L -1.203125 -1.875 C -1.003906 -1.875 -0.875 -1.941406 -0.8125 -2.078125 C -0.769531 -2.160156 -0.75 -2.285156 -0.75 -2.453125 C -0.75 -2.503906 -0.75 -2.554688 -0.75 -2.609375 C -0.75 -2.660156 -0.753906 -2.722656 -0.765625 -2.796875 L 0 -2.796875 C 0.03125 -2.679688 0.0507812 -2.5625 0.0625 -2.4375 C 0.0820312 -2.320312 0.09375 -2.195312 0.09375 -2.0625 C 0.09375 -1.613281 -0.0195312 -1.304688 -0.25 -1.140625 C -0.488281 -0.984375 -0.789062 -0.90625 -1.15625 -0.90625 L -4.96875 -0.90625 L -4.96875 -0.125 L -5.75 -0.125 L -5.75 -0.90625 Z M -7.359375 -0.90625 "/>
</g>
<g id="glyph-2-4">
<path d="M -5.71875 -0.703125 L -5.71875 -1.6875 L 0 -1.6875 L 0 -0.703125 Z M -7.890625 -0.703125 L -7.890625 -1.6875 L -6.796875 -1.6875 L -6.796875 -0.703125 Z M -7.890625 -0.703125 "/>
</g>
<g id="glyph-2-5">
<path d="M -5.75 -0.703125 L -5.75 -1.671875 L -4.9375 -1.671875 C -5.21875 -1.898438 -5.421875 -2.101562 -5.546875 -2.28125 C -5.765625 -2.601562 -5.875 -2.96875 -5.875 -3.375 C -5.875 -3.832031 -5.765625 -4.203125 -5.546875 -4.484375 C -5.410156 -4.640625 -5.21875 -4.78125 -4.96875 -4.90625 C -5.28125 -5.125 -5.507812 -5.378906 -5.65625 -5.671875 C -5.800781 -5.960938 -5.875 -6.285156 -5.875 -6.640625 C -5.875 -7.410156 -5.597656 -7.9375 -5.046875 -8.21875 C -4.742188 -8.375 -4.335938 -8.453125 -3.828125 -8.453125 L 0 -8.453125 L 0 -7.4375 L -4 -7.4375 C -4.382812 -7.4375 -4.644531 -7.34375 -4.78125 -7.15625 C -4.925781 -6.96875 -5 -6.734375 -5 -6.453125 C -5 -6.078125 -4.867188 -5.75 -4.609375 -5.46875 C -4.359375 -5.195312 -3.9375 -5.0625 -3.34375 -5.0625 L 0 -5.0625 L 0 -4.078125 L -3.75 -4.078125 C -4.144531 -4.078125 -4.429688 -4.03125 -4.609375 -3.9375 C -4.878906 -3.789062 -5.015625 -3.519531 -5.015625 -3.125 C -5.015625 -2.757812 -4.867188 -2.425781 -4.578125 -2.125 C -4.296875 -1.820312 -3.785156 -1.671875 -3.046875 -1.671875 L 0 -1.671875 L 0 -0.703125 Z M -5.75 -0.703125 "/>
</g>
<g id="glyph-2-6">
<path d="M -1.53125 -1.453125 C -1.25 -1.453125 -1.023438 -1.550781 -0.859375 -1.75 C -0.703125 -1.957031 -0.625 -2.203125 -0.625 -2.484375 C -0.625 -2.816406 -0.703125 -3.144531 -0.859375 -3.46875 C -1.117188 -4.007812 -1.550781 -4.28125 -2.15625 -4.28125 L -2.921875 -4.28125 C -2.847656 -4.15625 -2.785156 -4 -2.734375 -3.8125 C -2.691406 -3.632812 -2.65625 -3.453125 -2.625 -3.265625 L -2.5625 -2.6875 C -2.507812 -2.332031 -2.4375 -2.066406 -2.34375 -1.890625 C -2.164062 -1.597656 -1.894531 -1.453125 -1.53125 -1.453125 Z M -3.484375 -3.796875 C -3.515625 -4.015625 -3.609375 -4.160156 -3.765625 -4.234375 C -3.847656 -4.273438 -3.972656 -4.296875 -4.140625 -4.296875 C -4.460938 -4.296875 -4.695312 -4.175781 -4.84375 -3.9375 C -5 -3.707031 -5.078125 -3.375 -5.078125 -2.9375 C -5.078125 -2.4375 -4.941406 -2.082031 -4.671875 -1.875 C -4.515625 -1.75 -4.289062 -1.671875 -4 -1.640625 L -4 -0.734375 C -4.707031 -0.753906 -5.195312 -0.984375 -5.46875 -1.421875 C -5.75 -1.867188 -5.890625 -2.382812 -5.890625 -2.96875 C -5.890625 -3.644531 -5.757812 -4.191406 -5.5 -4.609375 C -5.25 -5.035156 -4.847656 -5.25 -4.296875 -5.25 L -0.984375 -5.25 C -0.890625 -5.25 -0.8125 -5.265625 -0.75 -5.296875 C -0.6875 -5.335938 -0.65625 -5.425781 -0.65625 -5.5625 C -0.65625 -5.601562 -0.65625 -5.648438 -0.65625 -5.703125 C -0.664062 -5.765625 -0.675781 -5.820312 -0.6875 -5.875 L 0.03125 -5.875 C 0.0703125 -5.726562 0.0976562 -5.613281 0.109375 -5.53125 C 0.117188 -5.457031 0.125 -5.351562 0.125 -5.21875 C 0.125 -4.882812 0.00390625 -4.640625 -0.234375 -4.484375 C -0.359375 -4.410156 -0.535156 -4.359375 -0.765625 -4.328125 C -0.503906 -4.128906 -0.28125 -3.84375 -0.09375 -3.46875 C 0.0898438 -3.101562 0.1875 -2.695312 0.1875 -2.25 C 0.1875 -1.71875 0.0234375 -1.28125 -0.296875 -0.9375 C -0.617188 -0.601562 -1.023438 -0.4375 -1.515625 -0.4375 C -2.046875 -0.4375 -2.457031 -0.601562 -2.75 -0.9375 C -3.039062 -1.269531 -3.222656 -1.707031 -3.296875 -2.25 Z M -5.890625 -2.984375 Z M -5.890625 -2.984375 "/>
</g>
</g>
<clipPath id="clip-0">
<path clip-rule="nonzero" d="M 45.386719 5.480469 L 354.523438 5.480469 L 354.523438 178.617188 L 45.386719 178.617188 Z M 45.386719 5.480469 "/>
</clipPath>
</defs>
<rect x="-36" y="-21.6" width="432" height="259.2" fill="rgb(100%, 100%, 100%)" fill-opacity="1"/>
<rect x="-36" y="-21.6" width="432" height="259.2" fill="rgb(100%, 100%, 100%)" fill-opacity="1"/>
<path fill="none" stroke-width="1.066978" stroke-linecap="round" stroke-linejoin="round" stroke="rgb(100%, 100%, 100%)" stroke-opacity="1" stroke-miterlimit="10" d="M 0 216 L 360 216 L 360 0 L 0 0 Z M 0 216 "/>
<g clip-path="url(#clip-0)">
<path fill-rule="nonzero" fill="rgb(100%, 100%, 100%)" fill-opacity="1" d="M 45.386719 178.613281 L 354.523438 178.613281 L 354.523438 5.476562 L 45.386719 5.476562 Z M 45.386719 178.613281 "/>
</g>
<path fill-rule="nonzero" fill="rgb(65.098039%, 65.098039%, 65.098039%)" fill-opacity="0.6" d="M 59.4375 118.066406 L 140.78125 133.585938 L 190.109375 143.359375 L 225.621094 148.90625 L 253.382812 151.496094 L 276.179688 152.375 L 295.523438 152.28125 L 312.320312 151.378906 L 327.167969 149.878906 L 340.46875 148.335938 L 340.46875 167.804688 L 327.167969 167.664062 L 312.320312 167.503906 L 295.523438 167.273438 L 276.179688 166.753906 L 253.382812 165.554688 L 225.621094 162.996094 L 190.109375 157.101562 L 140.78125 149.601562 L 59.4375 141.71875 Z M 59.4375 118.066406 "/>
<path fill-rule="nonzero" fill="rgb(65.098039%, 65.098039%, 65.098039%)" fill-opacity="0.6" d="M 59.4375 86.089844 L 140.78125 110.542969 L 190.109375 124.648438 L 225.621094 133.722656 L 253.382812 139.964844 L 276.179688 144.363281 L 295.523438 147.539062 L 312.320312 149.875 L 327.167969 151.617188 L 340.46875 152.972656 L 340.46875 163.394531 L 327.167969 162.148438 L 312.320312 160.546875 L 295.523438 158.253906 L 276.179688 155.144531 L 253.382812 150.632812 L 225.621094 144.085938 L 190.109375 134.625 L 140.78125 121.339844 L 59.4375 101.578125 Z M 59.4375 86.089844 "/>
<path fill-rule="nonzero" fill="rgb(65.098039%, 65.098039%, 65.098039%)" fill-opacity="0.6" d="M 59.4375 125.980469 L 140.78125 141.648438 L 190.109375 151.316406 L 225.621094 156.714844 L 253.382812 159.503906 L 276.179688 160.71875 L 295.523438 161.191406 L 312.320312 161.109375 L 327.167969 160.636719 L 340.46875 160.078125 L 340.46875 168.898438 L 327.167969 168.679688 L 312.320312 168.390625 L 295.523438 167.945312 L 276.179688 167.335938 L 253.382812 166.269531 L 225.621094 164.132812 L 190.109375 159.621094 L 140.78125 151.890625 L 59.4375 141.007812 Z M 59.4375 125.980469 "/>
<path fill="none" stroke-width="2.667446" stroke-linecap="butt" stroke-linejoin="round" stroke="rgb(13.333333%, 53.333333%, 20%)" stroke-opacity="0.6" stroke-miterlimit="10" d="M 59.4375 130.867188 L 140.78125 141.9375 L 190.109375 150.324219 L 225.621094 156.34375 L 253.382812 159.3125 L 276.179688 160.472656 L 295.523438 160.753906 L 312.320312 160.589844 L 327.167969 160.191406 L 340.46875 159.667969 "/>
<path fill="none" stroke-width="2.667446" stroke-linecap="butt" stroke-linejoin="round" stroke="rgb(26.666667%, 46.666667%, 66.666667%)" stroke-opacity="0.6" stroke-miterlimit="10" d="M 59.4375 134.09375 L 140.78125 146.878906 L 190.109375 155.558594 L 225.621094 160.703125 L 253.382812 163.355469 L 276.179688 164.6875 L 295.523438 165.359375 L 312.320312 165.675781 L 327.167969 165.800781 L 340.46875 165.8125 "/>
<path fill="none" stroke-width="2.667446" stroke-linecap="butt" stroke-linejoin="round" stroke="rgb(93.333333%, 40%, 46.666667%)" stroke-opacity="0.6" stroke-miterlimit="10" d="M 59.4375 93.800781 L 140.78125 115.890625 L 190.109375 129.570312 L 225.621094 138.898438 L 253.382812 145.371094 L 276.179688 149.890625 L 295.523438 153.09375 L 312.320312 155.410156 L 327.167969 157.125 L 340.46875 158.425781 "/>
<path fill="none" stroke-width="3.200935" stroke-linecap="butt" stroke-linejoin="round" stroke="rgb(26.666667%, 46.666667%, 66.666667%)" stroke-opacity="1" stroke-miterlimit="10" d="M 59.4375 134.09375 L 140.78125 146.878906 L 190.109375 155.558594 L 225.621094 160.703125 L 253.382812 163.355469 L 276.179688 164.6875 L 295.523438 165.359375 L 312.320312 165.675781 L 327.167969 165.800781 L 340.46875 165.8125 "/>
<path fill="none" stroke-width="3.200935" stroke-linecap="butt" stroke-linejoin="round" stroke="rgb(93.333333%, 40%, 46.666667%)" stroke-opacity="1" stroke-miterlimit="10" d="M 59.4375 93.800781 L 140.78125 115.890625 L 190.109375 129.570312 L 225.621094 138.898438 L 253.382812 145.371094 L 276.179688 149.890625 L 295.523438 153.09375 L 312.320312 155.410156 L 327.167969 157.125 L 340.46875 158.425781 "/>
<path fill="none" stroke-width="3.200935" stroke-linecap="butt" stroke-linejoin="round" stroke="rgb(13.333333%, 53.333333%, 20%)" stroke-opacity="1" stroke-miterlimit="10" d="M 59.4375 130.867188 L 140.78125 141.9375 L 190.109375 150.324219 L 225.621094 156.34375 L 253.382812 159.3125 L 276.179688 160.472656 L 295.523438 160.753906 L 312.320312 160.589844 L 327.167969 160.191406 L 340.46875 159.667969 "/>
<path fill="none" stroke-width="0.533489" stroke-linecap="butt" stroke-linejoin="round" stroke="rgb(70.196078%, 70.196078%, 70.196078%)" stroke-opacity="1" stroke-miterlimit="10" d="M 45.386719 178.613281 L 45.386719 5.480469 "/>
<g fill="rgb(30.196078%, 30.196078%, 30.196078%)" fill-opacity="1">
<use xlink:href="#glyph-0-1" x="23.453125" y="174.022461"/>
<use xlink:href="#glyph-0-2" x="28.453125" y="174.022461"/>
<use xlink:href="#glyph-0-1" x="30.453125" y="174.022461"/>
<use xlink:href="#glyph-0-1" x="35.453125" y="174.022461"/>
</g>
<g fill="rgb(30.196078%, 30.196078%, 30.196078%)" fill-opacity="1">
<use xlink:href="#glyph-0-1" x="23.453125" y="134.670898"/>
<use xlink:href="#glyph-0-2" x="28.453125" y="134.670898"/>
<use xlink:href="#glyph-0-3" x="30.453125" y="134.670898"/>
<use xlink:href="#glyph-0-4" x="35.453125" y="134.670898"/>
</g>
<g fill="rgb(30.196078%, 30.196078%, 30.196078%)" fill-opacity="1">
<use xlink:href="#glyph-0-1" x="23.453125" y="95.323242"/>
<use xlink:href="#glyph-0-2" x="28.453125" y="95.323242"/>
<use xlink:href="#glyph-0-4" x="30.453125" y="95.323242"/>
<use xlink:href="#glyph-0-1" x="35.453125" y="95.323242"/>
</g>
<g fill="rgb(30.196078%, 30.196078%, 30.196078%)" fill-opacity="1">
<use xlink:href="#glyph-0-1" x="23.453125" y="55.975586"/>
<use xlink:href="#glyph-0-2" x="28.453125" y="55.975586"/>
<use xlink:href="#glyph-0-5" x="30.453125" y="55.975586"/>
<use xlink:href="#glyph-0-4" x="35.453125" y="55.975586"/>
</g>
<g fill="rgb(30.196078%, 30.196078%, 30.196078%)" fill-opacity="1">
<use xlink:href="#glyph-0-6" x="23.453125" y="16.624023"/>
<use xlink:href="#glyph-0-2" x="28.453125" y="16.624023"/>
<use xlink:href="#glyph-0-1" x="30.453125" y="16.624023"/>
<use xlink:href="#glyph-0-1" x="35.453125" y="16.624023"/>
</g>
<path fill="none" stroke-width="0.533489" stroke-linecap="butt" stroke-linejoin="round" stroke="rgb(70.196078%, 70.196078%, 70.196078%)" stroke-opacity="1" stroke-miterlimit="10" d="M 42.644531 170.746094 L 45.386719 170.746094 "/>
<path fill="none" stroke-width="0.533489" stroke-linecap="butt" stroke-linejoin="round" stroke="rgb(70.196078%, 70.196078%, 70.196078%)" stroke-opacity="1" stroke-miterlimit="10" d="M 42.644531 131.394531 L 45.386719 131.394531 "/>
<path fill="none" stroke-width="0.533489" stroke-linecap="butt" stroke-linejoin="round" stroke="rgb(70.196078%, 70.196078%, 70.196078%)" stroke-opacity="1" stroke-miterlimit="10" d="M 42.644531 92.046875 L 45.386719 92.046875 "/>
<path fill="none" stroke-width="0.533489" stroke-linecap="butt" stroke-linejoin="round" stroke="rgb(70.196078%, 70.196078%, 70.196078%)" stroke-opacity="1" stroke-miterlimit="10" d="M 42.644531 52.699219 L 45.386719 52.699219 "/>
<path fill="none" stroke-width="0.533489" stroke-linecap="butt" stroke-linejoin="round" stroke="rgb(70.196078%, 70.196078%, 70.196078%)" stroke-opacity="1" stroke-miterlimit="10" d="M 42.644531 13.347656 L 45.386719 13.347656 "/>
<path fill="none" stroke-width="0.533489" stroke-linecap="butt" stroke-linejoin="round" stroke="rgb(70.196078%, 70.196078%, 70.196078%)" stroke-opacity="1" stroke-miterlimit="10" d="M 45.386719 178.613281 L 354.519531 178.613281 "/>
<path fill="none" stroke-width="0.533489" stroke-linecap="butt" stroke-linejoin="round" stroke="rgb(70.196078%, 70.196078%, 70.196078%)" stroke-opacity="1" stroke-miterlimit="10" d="M 45.960938 181.355469 L 45.960938 178.613281 "/>
<path fill="none" stroke-width="0.533489" stroke-linecap="butt" stroke-linejoin="round" stroke="rgb(70.196078%, 70.196078%, 70.196078%)" stroke-opacity="1" stroke-miterlimit="10" d="M 199.953125 181.355469 L 199.953125 178.613281 "/>
<path fill="none" stroke-width="0.533489" stroke-linecap="butt" stroke-linejoin="round" stroke="rgb(70.196078%, 70.196078%, 70.196078%)" stroke-opacity="1" stroke-miterlimit="10" d="M 340.46875 181.355469 L 340.46875 178.613281 "/>
<g fill="rgb(30.196078%, 30.196078%, 30.196078%)" fill-opacity="1">
<use xlink:href="#glyph-0-1" x="39.960938" y="190.323242"/>
<use xlink:href="#glyph-0-2" x="44.960938" y="190.323242"/>
<use xlink:href="#glyph-0-7" x="46.960938" y="190.323242"/>
</g>
<g fill="rgb(30.196078%, 30.196078%, 30.196078%)" fill-opacity="1">
<use xlink:href="#glyph-0-6" x="193.953125" y="190.323242"/>
<use xlink:href="#glyph-0-2" x="198.953125" y="190.323242"/>
<use xlink:href="#glyph-0-1" x="200.953125" y="190.323242"/>
</g>
<g fill="rgb(30.196078%, 30.196078%, 30.196078%)" fill-opacity="1">
<use xlink:href="#glyph-0-7" x="334.46875" y="190.323242"/>
<use xlink:href="#glyph-0-2" x="339.46875" y="190.323242"/>
<use xlink:href="#glyph-0-1" x="341.46875" y="190.323242"/>
</g>
<g fill="rgb(0%, 0%, 0%)" fill-opacity="1">
<use xlink:href="#glyph-1-1" x="169.953125" y="206.990234"/>
<use xlink:href="#glyph-1-2" x="173.953125" y="206.990234"/>
<use xlink:href="#glyph-1-3" x="179.953125" y="206.990234"/>
<use xlink:href="#glyph-1-4" x="181.953125" y="206.990234"/>
<use xlink:href="#glyph-1-5" x="187.953125" y="206.990234"/>
<use xlink:href="#glyph-1-6" x="190.953125" y="206.990234"/>
<use xlink:href="#glyph-1-7" x="192.953125" y="206.990234"/>
<use xlink:href="#glyph-1-2" x="198.953125" y="206.990234"/>
<use xlink:href="#glyph-1-8" x="204.953125" y="206.990234"/>
<use xlink:href="#glyph-1-1" x="210.953125" y="206.990234"/>
<use xlink:href="#glyph-1-4" x="214.953125" y="206.990234"/>
<use xlink:href="#glyph-1-5" x="220.953125" y="206.990234"/>
<use xlink:href="#glyph-1-2" x="223.953125" y="206.990234"/>
</g>
<g fill="rgb(0%, 0%, 0%)" fill-opacity="1">
<use xlink:href="#glyph-2-1" x="12.951172" y="112.546875"/>
<use xlink:href="#glyph-2-2" x="12.951172" y="106.546875"/>
<use xlink:href="#glyph-2-3" x="12.951172" y="100.546875"/>
<use xlink:href="#glyph-2-4" x="12.951172" y="97.546875"/>
<use xlink:href="#glyph-2-5" x="12.951172" y="95.546875"/>
<use xlink:href="#glyph-2-6" x="12.951172" y="86.546875"/>
<use xlink:href="#glyph-2-3" x="12.951172" y="80.546875"/>
<use xlink:href="#glyph-2-1" x="12.951172" y="77.546875"/>
</g>
<path fill-rule="nonzero" fill="rgb(100%, 100%, 100%)" fill-opacity="1" d="M 271.289062 131.6875 L 345.007812 131.6875 L 345.007812 52.410156 L 271.289062 52.410156 Z M 271.289062 131.6875 "/>
<g fill="rgb(0%, 0%, 0%)" fill-opacity="1">
<use xlink:href="#glyph-1-9" x="276.769531" y="66.857422"/>
<use xlink:href="#glyph-1-10" x="279.769531" y="66.857422"/>
<use xlink:href="#glyph-1-3" x="285.769531" y="66.857422"/>
<use xlink:href="#glyph-1-8" x="287.769531" y="66.857422"/>
<use xlink:href="#glyph-1-11" x="293.769531" y="66.857422"/>
<use xlink:href="#glyph-1-3" x="299.769531" y="66.857422"/>
<use xlink:href="#glyph-1-4" x="301.769531" y="66.857422"/>
<use xlink:href="#glyph-1-12" x="307.769531" y="66.857422"/>
<use xlink:href="#glyph-1-12" x="313.769531" y="66.857422"/>
</g>
<path fill-rule="nonzero" fill="rgb(100%, 100%, 100%)" fill-opacity="1" d="M 276.769531 91.648438 L 294.050781 91.648438 L 294.050781 74.367188 L 276.769531 74.367188 Z M 276.769531 91.648438 "/>
<path fill-rule="nonzero" fill="rgb(65.098039%, 65.098039%, 65.098039%)" fill-opacity="0.6" d="M 276.769531 91.648438 L 294.050781 91.648438 L 294.050781 74.367188 L 276.769531 74.367188 Z M 276.769531 91.648438 "/>
<path fill="none" stroke-width="2.667446" stroke-linecap="butt" stroke-linejoin="round" stroke="rgb(26.666667%, 46.666667%, 66.666667%)" stroke-opacity="0.6" stroke-miterlimit="10" d="M 278.5 83.007812 L 292.324219 83.007812 "/>
<path fill="none" stroke-width="3.200935" stroke-linecap="butt" stroke-linejoin="round" stroke="rgb(26.666667%, 46.666667%, 66.666667%)" stroke-opacity="1" stroke-miterlimit="10" d="M 278.5 83.007812 L 292.324219 83.007812 "/>
<path fill-rule="nonzero" fill="rgb(100%, 100%, 100%)" fill-opacity="1" d="M 276.769531 108.925781 L 294.050781 108.925781 L 294.050781 91.644531 L 276.769531 91.644531 Z M 276.769531 108.925781 "/>
<path fill-rule="nonzero" fill="rgb(65.098039%, 65.098039%, 65.098039%)" fill-opacity="0.6" d="M 276.769531 108.925781 L 294.050781 108.925781 L 294.050781 91.644531 L 276.769531 91.644531 Z M 276.769531 108.925781 "/>
<path fill="none" stroke-width="2.667446" stroke-linecap="butt" stroke-linejoin="round" stroke="rgb(93.333333%, 40%, 46.666667%)" stroke-opacity="0.6" stroke-miterlimit="10" d="M 278.5 100.285156 L 292.324219 100.285156 "/>
<path fill="none" stroke-width="3.200935" stroke-linecap="butt" stroke-linejoin="round" stroke="rgb(93.333333%, 40%, 46.666667%)" stroke-opacity="1" stroke-miterlimit="10" d="M 278.5 100.285156 L 292.324219 100.285156 "/>
<path fill-rule="nonzero" fill="rgb(100%, 100%, 100%)" fill-opacity="1" d="M 276.769531 126.207031 L 294.050781 126.207031 L 294.050781 108.925781 L 276.769531 108.925781 Z M 276.769531 126.207031 "/>
<path fill-rule="nonzero" fill="rgb(65.098039%, 65.098039%, 65.098039%)" fill-opacity="0.6" d="M 276.769531 126.207031 L 294.050781 126.207031 L 294.050781 108.925781 L 276.769531 108.925781 Z M 276.769531 126.207031 "/>
<path fill="none" stroke-width="2.667446" stroke-linecap="butt" stroke-linejoin="round" stroke="rgb(13.333333%, 53.333333%, 20%)" stroke-opacity="0.6" stroke-miterlimit="10" d="M 278.5 117.566406 L 292.324219 117.566406 "/>
<path fill="none" stroke-width="3.200935" stroke-linecap="butt" stroke-linejoin="round" stroke="rgb(13.333333%, 53.333333%, 20%)" stroke-opacity="1" stroke-miterlimit="10" d="M 278.5 117.566406 L 292.324219 117.566406 "/>
<g fill="rgb(0%, 0%, 0%)" fill-opacity="1">
<use xlink:href="#glyph-0-8" x="299.53125" y="86.28418"/>
<use xlink:href="#glyph-0-9" x="303.53125" y="86.28418"/>
<use xlink:href="#glyph-0-10" x="308.53125" y="86.28418"/>
<use xlink:href="#glyph-0-11" x="313.53125" y="86.28418"/>
<use xlink:href="#glyph-0-9" x="317.53125" y="86.28418"/>
<use xlink:href="#glyph-0-10" x="322.53125" y="86.28418"/>
<use xlink:href="#glyph-0-12" x="327.53125" y="86.28418"/>
<use xlink:href="#glyph-0-10" x="332.53125" y="86.28418"/>
<use xlink:href="#glyph-0-13" x="337.53125" y="86.28418"/>
</g>
<g fill="rgb(0%, 0%, 0%)" fill-opacity="1">
<use xlink:href="#glyph-0-14" x="299.53125" y="103.561523"/>
<use xlink:href="#glyph-0-12" x="304.53125" y="103.561523"/>
<use xlink:href="#glyph-0-15" x="309.53125" y="103.561523"/>
<use xlink:href="#glyph-0-11" x="314.53125" y="103.561523"/>
<use xlink:href="#glyph-0-16" x="318.53125" y="103.561523"/>
</g>
<g fill="rgb(0%, 0%, 0%)" fill-opacity="1">
<use xlink:href="#glyph-0-17" x="299.53125" y="120.842773"/>
<use xlink:href="#glyph-0-9" x="303.53125" y="120.842773"/>
<use xlink:href="#glyph-0-18" x="308.53125" y="120.842773"/>
<use xlink:href="#glyph-0-16" x="314.53125" y="120.842773"/>
<use xlink:href="#glyph-0-19" x="319.53125" y="120.842773"/>
</g>
</svg>
