<?xml version="1.0" encoding="UTF-8"?>
<svg xmlns="http://www.w3.org/2000/svg" xmlns:xlink="http://www.w3.org/1999/xlink" width="360pt" height="216pt" viewBox="0 0 360 216">
<defs>
<g>
<g id="glyph-0-0">
<path d="M 0.28125 0 L 0.28125 -6.3125 L 5.296875 -6.3125 L 5.296875 0 Z M 4.5 -0.796875 L 4.5 -5.515625 L 1.078125 -5.515625 L 1.078125 -0.796875 Z M 4.5 -0.796875 "/>
</g>
<g id="glyph-0-1">
<path d="M 2.375 -6.15625 C 3.175781 -6.15625 3.753906 -5.828125 4.109375 -5.171875 C 4.378906 -4.660156 4.515625 -3.960938 4.515625 -3.078125 C 4.515625 -2.242188 4.390625 -1.554688 4.140625 -1.015625 C 3.785156 -0.222656 3.195312 0.171875 2.375 0.171875 C 1.632812 0.171875 1.082031 -0.148438 0.71875 -0.796875 C 0.425781 -1.328125 0.28125 -2.046875 0.28125 -2.953125 C 0.28125 -3.648438 0.367188 -4.25 0.546875 -4.75 C 0.878906 -5.6875 1.488281 -6.15625 2.375 -6.15625 Z M 2.375 -0.53125 C 2.769531 -0.53125 3.085938 -0.707031 3.328125 -1.0625 C 3.566406 -1.425781 3.6875 -2.085938 3.6875 -3.046875 C 3.6875 -3.753906 3.597656 -4.332031 3.421875 -4.78125 C 3.253906 -5.226562 2.921875 -5.453125 2.421875 -5.453125 C 1.972656 -5.453125 1.640625 -5.238281 1.421875 -4.8125 C 1.210938 -4.382812 1.109375 -3.753906 1.109375 -2.921875 C 1.109375 -2.296875 1.175781 -1.789062 1.3125 -1.40625 C 1.519531 -0.820312 1.875 -0.53125 2.375 -0.53125 Z M 2.375 -0.53125 "/>
</g>
<g id="glyph-0-2">
<path d="M 0.84375 -4.359375 L 0.84375 -4.953125 C 1.394531 -5.003906 1.78125 -5.09375 2 -5.21875 C 2.226562 -5.34375 2.394531 -5.644531 2.5 -6.125 L 3.109375 -6.125 L 3.109375 0 L 2.296875 0 L 2.296875 -4.359375 Z M 0.84375 -4.359375 "/>
</g>
<g id="glyph-0-3">
<path d="M 0.28125 0 C 0.300781 -0.53125 0.40625 -0.988281 0.59375 -1.375 C 0.789062 -1.769531 1.164062 -2.128906 1.71875 -2.453125 L 2.546875 -2.921875 C 2.910156 -3.140625 3.164062 -3.328125 3.3125 -3.484375 C 3.550781 -3.710938 3.671875 -3.984375 3.671875 -4.296875 C 3.671875 -4.648438 3.5625 -4.929688 3.34375 -5.140625 C 3.132812 -5.359375 2.847656 -5.46875 2.484375 -5.46875 C 1.960938 -5.46875 1.597656 -5.265625 1.390625 -4.859375 C 1.285156 -4.648438 1.226562 -4.351562 1.21875 -3.96875 L 0.421875 -3.96875 C 0.429688 -4.5 0.53125 -4.9375 0.71875 -5.28125 C 1.050781 -5.875 1.644531 -6.171875 2.5 -6.171875 C 3.195312 -6.171875 3.707031 -5.976562 4.03125 -5.59375 C 4.363281 -5.21875 4.53125 -4.796875 4.53125 -4.328125 C 4.53125 -3.835938 4.351562 -3.414062 4 -3.0625 C 3.800781 -2.863281 3.441406 -2.617188 2.921875 -2.328125 L 2.34375 -2 C 2.0625 -1.84375 1.835938 -1.695312 1.671875 -1.5625 C 1.390625 -1.3125 1.210938 -1.035156 1.140625 -0.734375 L 4.5 -0.734375 L 4.5 0 Z M 0.28125 0 "/>
</g>
<g id="glyph-0-4">
<path d="M 2.28125 0.171875 C 1.550781 0.171875 1.019531 -0.0234375 0.6875 -0.421875 C 0.363281 -0.828125 0.203125 -1.316406 0.203125 -1.890625 L 1.015625 -1.890625 C 1.046875 -1.492188 1.117188 -1.203125 1.234375 -1.015625 C 1.441406 -0.691406 1.804688 -0.53125 2.328125 -0.53125 C 2.734375 -0.53125 3.054688 -0.640625 3.296875 -0.859375 C 3.546875 -1.078125 3.671875 -1.359375 3.671875 -1.703125 C 3.671875 -2.128906 3.539062 -2.425781 3.28125 -2.59375 C 3.03125 -2.757812 2.671875 -2.84375 2.203125 -2.84375 C 2.148438 -2.84375 2.097656 -2.84375 2.046875 -2.84375 C 1.992188 -2.84375 1.941406 -2.84375 1.890625 -2.84375 L 1.890625 -3.515625 C 1.972656 -3.515625 2.039062 -3.507812 2.09375 -3.5 C 2.144531 -3.5 2.203125 -3.5 2.265625 -3.5 C 2.554688 -3.5 2.796875 -3.546875 2.984375 -3.640625 C 3.304688 -3.796875 3.46875 -4.082031 3.46875 -4.5 C 3.46875 -4.800781 3.359375 -5.035156 3.140625 -5.203125 C 2.921875 -5.367188 2.671875 -5.453125 2.390625 -5.453125 C 1.867188 -5.453125 1.507812 -5.28125 1.3125 -4.9375 C 1.207031 -4.75 1.144531 -4.476562 1.125 -4.125 L 0.359375 -4.125 C 0.359375 -4.582031 0.453125 -4.972656 0.640625 -5.296875 C 0.953125 -5.867188 1.503906 -6.15625 2.296875 -6.15625 C 2.929688 -6.15625 3.421875 -6.015625 3.765625 -5.734375 C 4.109375 -5.460938 4.28125 -5.0625 4.28125 -4.53125 C 4.28125 -4.144531 4.175781 -3.835938 3.96875 -3.609375 C 3.84375 -3.460938 3.679688 -3.347656 3.484375 -3.265625 C 3.804688 -3.171875 4.054688 -3 4.234375 -2.75 C 4.421875 -2.5 4.515625 -2.191406 4.515625 -1.828125 C 4.515625 -1.234375 4.316406 -0.75 3.921875 -0.375 C 3.535156 -0.0078125 2.988281 0.171875 2.28125 0.171875 Z M 2.28125 0.171875 "/>
</g>
<g id="glyph-0-5">
<path d="M 1.171875 -1.484375 C 1.191406 -1.054688 1.351562 -0.757812 1.65625 -0.59375 C 1.820312 -0.507812 2 -0.46875 2.1875 -0.46875 C 2.5625 -0.46875 2.878906 -0.617188 3.140625 -0.921875 C 3.398438 -1.234375 3.582031 -1.863281 3.6875 -2.8125 C 3.519531 -2.539062 3.304688 -2.347656 3.046875 -2.234375 C 2.796875 -2.128906 2.523438 -2.078125 2.234375 -2.078125 C 1.640625 -2.078125 1.171875 -2.257812 0.828125 -2.625 C 0.484375 -2.988281 0.3125 -3.460938 0.3125 -4.046875 C 0.3125 -4.609375 0.476562 -5.097656 0.8125 -5.515625 C 1.15625 -5.941406 1.660156 -6.15625 2.328125 -6.15625 C 3.222656 -6.15625 3.84375 -5.753906 4.1875 -4.953125 C 4.375 -4.503906 4.46875 -3.945312 4.46875 -3.28125 C 4.46875 -2.53125 4.351562 -1.863281 4.125 -1.28125 C 3.75 -0.3125 3.113281 0.171875 2.21875 0.171875 C 1.625 0.171875 1.171875 0.0117188 0.859375 -0.296875 C 0.546875 -0.609375 0.390625 -1.003906 0.390625 -1.484375 Z M 2.34375 -2.75 C 2.644531 -2.75 2.921875 -2.847656 3.171875 -3.046875 C 3.429688 -3.253906 3.5625 -3.609375 3.5625 -4.109375 C 3.5625 -4.566406 3.445312 -4.90625 3.21875 -5.125 C 2.988281 -5.34375 2.695312 -5.453125 2.34375 -5.453125 C 1.96875 -5.453125 1.664062 -5.320312 1.4375 -5.0625 C 1.21875 -4.8125 1.109375 -4.476562 1.109375 -4.0625 C 1.109375 -3.65625 1.207031 -3.332031 1.40625 -3.09375 C 1.601562 -2.863281 1.914062 -2.75 2.34375 -2.75 Z M 2.34375 -2.75 "/>
</g>
<g id="glyph-0-6">
<path d="M 1.09375 -1.5625 C 1.132812 -1.125 1.335938 -0.820312 1.703125 -0.65625 C 1.878906 -0.570312 2.09375 -0.53125 2.34375 -0.53125 C 2.800781 -0.53125 3.140625 -0.675781 3.359375 -0.96875 C 3.578125 -1.257812 3.6875 -1.582031 3.6875 -1.9375 C 3.6875 -2.363281 3.554688 -2.691406 3.296875 -2.921875 C 3.035156 -3.160156 2.71875 -3.28125 2.34375 -3.28125 C 2.082031 -3.28125 1.851562 -3.226562 1.65625 -3.125 C 1.46875 -3.019531 1.304688 -2.878906 1.171875 -2.703125 L 0.5 -2.734375 L 0.96875 -6.046875 L 4.171875 -6.046875 L 4.171875 -5.296875 L 1.5625 -5.296875 L 1.296875 -3.59375 C 1.429688 -3.695312 1.566406 -3.773438 1.703125 -3.828125 C 1.929688 -3.929688 2.195312 -3.984375 2.5 -3.984375 C 3.0625 -3.984375 3.535156 -3.800781 3.921875 -3.4375 C 4.316406 -3.070312 4.515625 -2.609375 4.515625 -2.046875 C 4.515625 -1.460938 4.332031 -0.945312 3.96875 -0.5 C 3.613281 -0.0625 3.046875 0.15625 2.265625 0.15625 C 1.753906 0.15625 1.304688 0.0117188 0.921875 -0.265625 C 0.546875 -0.546875 0.332031 -0.976562 0.28125 -1.5625 Z M 1.09375 -1.5625 "/>
</g>
<g id="glyph-0-7">
<path d="M 4.59375 -6.046875 L 4.59375 -5.375 C 4.394531 -5.175781 4.128906 -4.835938 3.796875 -4.359375 C 3.472656 -3.890625 3.1875 -3.378906 2.9375 -2.828125 C 2.6875 -2.296875 2.5 -1.8125 2.375 -1.375 C 2.289062 -1.082031 2.179688 -0.625 2.046875 0 L 1.203125 0 C 1.390625 -1.175781 1.816406 -2.34375 2.484375 -3.5 C 2.878906 -4.1875 3.289062 -4.773438 3.71875 -5.265625 L 0.328125 -5.265625 L 0.328125 -6.046875 Z M 4.59375 -6.046875 "/>
</g>
<g id="glyph-1-0">
<path d="M 0.359375 0 L 0.359375 -7.890625 L 6.625 -7.890625 L 6.625 0 Z M 5.625 -0.984375 L 5.625 -6.90625 L 1.34375 -6.90625 L 1.34375 -0.984375 Z M 5.625 -0.984375 "/>
</g>
<g id="glyph-1-1">
<path d="M 1.328125 -2.8125 C 1.328125 -2.195312 1.457031 -1.679688 1.71875 -1.265625 C 1.976562 -0.847656 2.394531 -0.640625 2.96875 -0.640625 C 3.414062 -0.640625 3.78125 -0.832031 4.0625 -1.21875 C 4.351562 -1.601562 4.5 -2.15625 4.5 -2.875 C 4.5 -3.601562 4.347656 -4.140625 4.046875 -4.484375 C 3.753906 -4.835938 3.390625 -5.015625 2.953125 -5.015625 C 2.472656 -5.015625 2.082031 -4.828125 1.78125 -4.453125 C 1.476562 -4.078125 1.328125 -3.53125 1.328125 -2.8125 Z M 2.78125 -5.859375 C 3.21875 -5.859375 3.585938 -5.765625 3.890625 -5.578125 C 4.054688 -5.472656 4.25 -5.285156 4.46875 -5.015625 L 4.46875 -7.921875 L 5.390625 -7.921875 L 5.390625 0 L 4.53125 0 L 4.53125 -0.796875 C 4.300781 -0.441406 4.03125 -0.1875 3.71875 -0.03125 C 3.414062 0.121094 3.066406 0.203125 2.671875 0.203125 C 2.023438 0.203125 1.46875 -0.0625 1 -0.59375 C 0.53125 -1.132812 0.296875 -1.851562 0.296875 -2.75 C 0.296875 -3.59375 0.507812 -4.320312 0.9375 -4.9375 C 1.363281 -5.550781 1.976562 -5.859375 2.78125 -5.859375 Z M 2.78125 -5.859375 "/>
</g>
<g id="glyph-1-2">
<path d="M 2.984375 -0.625 C 3.628906 -0.625 4.070312 -0.863281 4.3125 -1.34375 C 4.550781 -1.832031 4.671875 -2.375 4.671875 -2.96875 C 4.671875 -3.507812 4.582031 -3.945312 4.40625 -4.28125 C 4.132812 -4.8125 3.664062 -5.078125 3 -5.078125 C 2.40625 -5.078125 1.972656 -4.847656 1.703125 -4.390625 C 1.441406 -3.941406 1.3125 -3.398438 1.3125 -2.765625 C 1.3125 -2.148438 1.441406 -1.640625 1.703125 -1.234375 C 1.972656 -0.828125 2.398438 -0.625 2.984375 -0.625 Z M 3.03125 -5.921875 C 3.769531 -5.921875 4.394531 -5.671875 4.90625 -5.171875 C 5.414062 -4.679688 5.671875 -3.957031 5.671875 -3 C 5.671875 -2.070312 5.445312 -1.304688 5 -0.703125 C 4.550781 -0.0976562 3.851562 0.203125 2.90625 0.203125 C 2.113281 0.203125 1.484375 -0.0625 1.015625 -0.59375 C 0.546875 -1.125 0.3125 -1.84375 0.3125 -2.75 C 0.3125 -3.71875 0.554688 -4.488281 1.046875 -5.0625 C 1.535156 -5.632812 2.195312 -5.921875 3.03125 -5.921875 Z M 3 -5.890625 Z M 3 -5.890625 "/>
</g>
<g id="glyph-1-3">
<path d="M 0.640625 -7.921875 L 1.578125 -7.921875 L 1.578125 -5.046875 C 1.785156 -5.328125 2.035156 -5.539062 2.328125 -5.6875 C 2.617188 -5.832031 2.9375 -5.90625 3.28125 -5.90625 C 4 -5.90625 4.582031 -5.65625 5.03125 -5.15625 C 5.476562 -4.664062 5.703125 -3.941406 5.703125 -2.984375 C 5.703125 -2.078125 5.476562 -1.320312 5.03125 -0.71875 C 4.59375 -0.113281 3.984375 0.1875 3.203125 0.1875 C 2.765625 0.1875 2.394531 0.0742188 2.09375 -0.140625 C 1.914062 -0.265625 1.726562 -0.460938 1.53125 -0.734375 L 1.53125 0 L 0.640625 0 Z M 3.140625 -0.671875 C 3.671875 -0.671875 4.0625 -0.878906 4.3125 -1.296875 C 4.570312 -1.710938 4.703125 -2.257812 4.703125 -2.9375 C 4.703125 -3.539062 4.570312 -4.039062 4.3125 -4.4375 C 4.0625 -4.832031 3.679688 -5.03125 3.171875 -5.03125 C 2.734375 -5.03125 2.347656 -4.867188 2.015625 -4.546875 C 1.679688 -4.222656 1.515625 -3.6875 1.515625 -2.9375 C 1.515625 -2.394531 1.582031 -1.957031 1.71875 -1.625 C 1.976562 -0.988281 2.453125 -0.671875 3.140625 -0.671875 Z M 3.140625 -0.671875 "/>
</g>
<g id="glyph-2-0">
<path d="M 0 -0.359375 L -7.890625 -0.359375 L -7.890625 -6.625 L 0 -6.625 Z M -0.984375 -5.625 L -6.90625 -5.625 L -6.90625 -1.34375 L -0.984375 -1.34375 Z M -0.984375 -5.625 "/>
</g>
<g id="glyph-2-1">
<path d="M -5.875 -3.109375 C -5.875 -3.515625 -5.78125 -3.90625 -5.59375 -4.28125 C -5.40625 -4.664062 -5.15625 -4.960938 -4.84375 -5.171875 C -4.5625 -5.359375 -4.222656 -5.484375 -3.828125 -5.546875 C -3.566406 -5.609375 -3.144531 -5.640625 -2.5625 -5.640625 L -2.5625 -1.421875 C -1.976562 -1.441406 -1.507812 -1.578125 -1.15625 -1.828125 C -0.8125 -2.085938 -0.640625 -2.488281 -0.640625 -3.03125 C -0.640625 -3.539062 -0.804688 -3.945312 -1.140625 -4.25 C -1.328125 -4.414062 -1.550781 -4.535156 -1.8125 -4.609375 L -1.8125 -5.5625 C -1.59375 -5.53125 -1.351562 -5.441406 -1.09375 -5.296875 C -0.832031 -5.160156 -0.625 -5.003906 -0.46875 -4.828125 C -0.175781 -4.535156 0.0195312 -4.175781 0.125 -3.75 C 0.175781 -3.507812 0.203125 -3.242188 0.203125 -2.953125 C 0.203125 -2.234375 -0.0546875 -1.625 -0.578125 -1.125 C -1.097656 -0.632812 -1.828125 -0.390625 -2.765625 -0.390625 C -3.691406 -0.390625 -4.441406 -0.640625 -5.015625 -1.140625 C -5.585938 -1.640625 -5.875 -2.296875 -5.875 -3.109375 Z M -3.328125 -4.640625 C -3.753906 -4.609375 -4.09375 -4.519531 -4.34375 -4.375 C -4.800781 -4.101562 -5.03125 -3.660156 -5.03125 -3.046875 C -5.03125 -2.597656 -4.867188 -2.222656 -4.546875 -1.921875 C -4.234375 -1.628906 -3.828125 -1.472656 -3.328125 -1.453125 Z M -5.890625 -3.015625 Z M -5.890625 -3.015625 "/>
</g>
<g id="glyph-2-2">
<path d="M -1.8125 -1.28125 C -1.488281 -1.3125 -1.238281 -1.394531 -1.0625 -1.53125 C -0.75 -1.769531 -0.59375 -2.191406 -0.59375 -2.796875 C -0.59375 -3.148438 -0.671875 -3.460938 -0.828125 -3.734375 C -0.984375 -4.003906 -1.222656 -4.140625 -1.546875 -4.140625 C -1.796875 -4.140625 -1.984375 -4.03125 -2.109375 -3.8125 C -2.191406 -3.675781 -2.285156 -3.398438 -2.390625 -2.984375 L -2.578125 -2.21875 C -2.703125 -1.726562 -2.835938 -1.367188 -2.984375 -1.140625 C -3.253906 -0.722656 -3.617188 -0.515625 -4.078125 -0.515625 C -4.617188 -0.515625 -5.054688 -0.707031 -5.390625 -1.09375 C -5.734375 -1.488281 -5.90625 -2.019531 -5.90625 -2.6875 C -5.90625 -3.550781 -5.648438 -4.175781 -5.140625 -4.5625 C -4.816406 -4.800781 -4.46875 -4.914062 -4.09375 -4.90625 L -4.09375 -4 C -4.3125 -3.976562 -4.507812 -3.898438 -4.6875 -3.765625 C -4.945312 -3.546875 -5.078125 -3.160156 -5.078125 -2.609375 C -5.078125 -2.242188 -5.003906 -1.96875 -4.859375 -1.78125 C -4.722656 -1.59375 -4.539062 -1.5 -4.3125 -1.5 C -4.0625 -1.5 -3.863281 -1.625 -3.71875 -1.875 C -3.625 -2.007812 -3.539062 -2.21875 -3.46875 -2.5 L -3.3125 -3.140625 C -3.144531 -3.835938 -2.984375 -4.300781 -2.828125 -4.53125 C -2.578125 -4.914062 -2.191406 -5.109375 -1.671875 -5.109375 C -1.148438 -5.109375 -0.703125 -4.910156 -0.328125 -4.515625 C 0.0351562 -4.128906 0.21875 -3.539062 0.21875 -2.75 C 0.21875 -1.894531 0.0234375 -1.285156 -0.359375 -0.921875 C -0.753906 -0.566406 -1.238281 -0.378906 -1.8125 -0.359375 Z M -5.890625 -2.71875 Z M -5.890625 -2.71875 "/>
</g>
<g id="glyph-2-3">
<path d="M -7.359375 -0.90625 L -7.359375 -1.875 L -5.75 -1.875 L -5.75 -2.796875 L -4.96875 -2.796875 L -4.96875 -1.875 L -1.203125 -1.875 C -1.003906 -1.875 -0.875 -1.941406 -0.8125 -2.078125 C -0.769531 -2.160156 -0.75 -2.285156 -0.75 -2.453125 C -0.75 -2.503906 -0.75 -2.554688 -0.75 -2.609375 C -0.75 -2.660156 -0.753906 -2.722656 -0.765625 -2.796875 L 0 -2.796875 C 0.03125 -2.679688 0.0507812 -2.5625 0.0625 -2.4375 C 0.0820312 -2.320312 0.09375 -2.195312 0.09375 -2.0625 C 0.09375 -1.613281 -0.0195312 -1.304688 -0.25 -1.140625 C -0.488281 -0.984375 -0.789062 -0.90625 -1.15625 -0.90625 L -4.96875 -0.90625 L -4.96875 -0.125 L -5.75 -0.125 L -5.75 -0.90625 Z M -7.359375 -0.90625 "/>
</g>
<g id="glyph-2-4">
<path d="M -5.71875 -0.703125 L -5.71875 -1.6875 L 0 -1.6875 L 0 -0.703125 Z M -7.890625 -0.703125 L -7.890625 -1.6875 L -6.796875 -1.6875 L -6.796875 -0.703125 Z M -7.890625 -0.703125 "/>
</g>
<g id="glyph-2-5">
<path d="M -5.75 -0.703125 L -5.75 -1.671875 L -4.9375 -1.671875 C -5.21875 -1.898438 -5.421875 -2.101562 -5.546875 -2.28125 C -5.765625 -2.601562 -5.875 -2.96875 -5.875 -3.375 C -5.875 -3.832031 -5.765625 -4.203125 -5.546875 -4.484375 C -5.410156 -4.640625 -5.21875 -4.78125 -4.96875 -4.90625 C -5.28125 -5.125 -5.507812 -5.378906 -5.65625 -5.671875 C -5.800781 -5.960938 -5.875 -6.285156 -5.875 -6.640625 C -5.875 -7.410156 -5.597656 -7.9375 -5.046875 -8.21875 C -4.742188 -8.375 -4.335938 -8.453125 -3.828125 -8.453125 L 0 -8.453125 L 0 -7.4375 L -4 -7.4375 C -4.382812 -7.4375 -4.644531 -7.34375 -4.78125 -7.15625 C -4.925781 -6.96875 -5 -6.734375 -5 -6.453125 C -5 -6.078125 -4.867188 -5.75 -4.609375 -5.46875 C -4.359375 -5.195312 -3.9375 -5.0625 -3.34375 -5.0625 L 0 -5.0625 L 0 -4.078125 L -3.75 -4.078125 C -4.144531 -4.078125 -4.429688 -4.03125 -4.609375 -3.9375 C -4.878906 -3.789062 -5.015625 -3.519531 -5.015625 -3.125 C -5.015625 -2.757812 -4.867188 -2.425781 -4.578125 -2.125 C -4.296875 -1.820312 -3.785156 -1.671875 -3.046875 -1.671875 L 0 -1.671875 L 0 -0.703125 Z M -5.75 -0.703125 "/>
</g>
<g id="glyph-2-6">
<path d="M -1.53125 -1.453125 C -1.25 -1.453125 -1.023438 -1.550781 -0.859375 -1.75 C -0.703125 -1.957031 -0.625 -2.203125 -0.625 -2.484375 C -0.625 -2.816406 -0.703125 -3.144531 -0.859375 -3.46875 C -1.117188 -4.007812 -1.550781 -4.28125 -2.15625 -4.28125 L -2.921875 -4.28125 C -2.847656 -4.15625 -2.785156 -4 -2.734375 -3.8125 C -2.691406 -3.632812 -2.65625 -3.453125 -2.625 -3.265625 L -2.5625 -2.6875 C -2.507812 -2.332031 -2.4375 -2.066406 -2.34375 -1.890625 C -2.164062 -1.597656 -1.894531 -1.453125 -1.53125 -1.453125 Z M -3.484375 -3.796875 C -3.515625 -4.015625 -3.609375 -4.160156 -3.765625 -4.234375 C -3.847656 -4.273438 -3.972656 -4.296875 -4.140625 -4.296875 C -4.460938 -4.296875 -4.695312 -4.175781 -4.84375 -3.9375 C -5 -3.707031 -5.078125 -3.375 -5.078125 -2.9375 C -5.078125 -2.4375 -4.941406 -2.082031 -4.671875 -1.875 C -4.515625 -1.75 -4.289062 -1.671875 -4 -1.640625 L -4 -0.734375 C -4.707031 -0.753906 -5.195312 -0.984375 -5.46875 -1.421875 C -5.75 -1.867188 -5.890625 -2.382812 -5.890625 -2.96875 C -5.890625 -3.644531 -5.757812 -4.191406 -5.5 -4.609375 C -5.25 -5.035156 -4.847656 -5.25 -4.296875 -5.25 L -0.984375 -5.25 C -0.890625 -5.25 -0.8125 -5.265625 -0.75 -5.296875 C -0.6875 -5.335938 -0.65625 -5.425781 -0.65625 -5.5625 C -0.65625 -5.601562 -0.65625 -5.648438 -0.65625 -5.703125 C -0.664062 -5.765625 -0.675781 -5.820312 -0.6875 -5.875 L 0.03125 -5.875 C 0.0703125 -5.726562 0.0976562 -5.613281 0.109375 -5.53125 C 0.117188 -5.457031 0.125 -5.351562 0.125 -5.21875 C 0.125 -4.882812 0.00390625 -4.640625 -0.234375 -4.484375 C -0.359375 -4.410156 -0.535156 -4.359375 -0.765625 -4.328125 C -0.503906 -4.128906 -0.28125 -3.84375 -0.09375 -3.46875 C 0.0898438 -3.101562 0.1875 -2.695312 0.1875 -2.25 C 0.1875 -1.71875 0.0234375 -1.28125 -0.296875 -0.9375 C -0.617188 -0.601562 -1.023438 -0.4375 -1.515625 -0.4375 C -2.046875 -0.4375 -2.457031 -0.601562 -2.75 -0.9375 C -3.039062 -1.269531 -3.222656 -1.707031 -3.296875 -2.25 Z M -5.890625 -2.984375 Z M -5.890625 -2.984375 "/>
</g>
</g>
<clipPath id="clip-0">
<path clip-rule="nonzero" d="M 33.386719 5.480469 L 354.523438 5.480469 L 354.523438 178.617188 L 33.386719 178.617188 Z M 33.386719 5.480469 "/>
</clipPath>
<clipPath id="clip-1">
<path clip-rule="nonzero" d="M 33.386719 162 L 354.523438 162 L 354.523438 164 L 33.386719 164 Z M 33.386719 162 "/>
</clipPath>
</defs>
<rect x="-36" y="-21.6" width="432" height="259.2" fill="rgb(100%, 100%, 100%)" fill-opacity="1"/>
<rect x="-36" y="-21.6" width="432" height="259.2" fill="rgb(100%, 100%, 100%)" fill-opacity="1"/>
<path fill="none" stroke-width="1.066978" stroke-linecap="round" stroke-linejoin="round" stroke="rgb(100%, 100%, 100%)" stroke-opacity="1" stroke-miterlimit="10" d="M 0 216 L 360 216 L 360 0 L 0 0 Z M 0 216 "/>
<g clip-path="url(#clip-0)">
<path fill-rule="nonzero" fill="rgb(100%, 100%, 100%)" fill-opacity="1" d="M 33.386719 178.613281 L 354.523438 178.613281 L 354.523438 5.476562 L 33.386719 5.476562 Z M 33.386719 178.613281 "/>
</g>
<g clip-path="url(#clip-1)">
<path fill="none" stroke-width="1.066978" stroke-linecap="butt" stroke-linejoin="round" stroke="rgb(0%, 0%, 0%)" stroke-opacity="1" stroke-miterlimit="10" d="M 33.386719 162.640625 L 354.519531 162.640625 "/>
</g>
<path fill-rule="nonzero" fill="rgb(65.098039%, 65.098039%, 65.098039%)" fill-opacity="0.8" d="M 47.980469 13.347656 L 51.226562 15.125 L 54.46875 16.710938 L 57.714844 18.191406 L 60.957031 19.957031 L 64.199219 21.457031 L 67.445312 23.023438 L 70.6875 24.71875 L 73.933594 26.363281 L 77.175781 28.132812 L 80.417969 29.488281 L 83.664062 31.074219 L 86.90625 32.496094 L 90.152344 34.0625 L 93.394531 35.554688 L 96.640625 37.113281 L 99.882812 38.871094 L 103.125 40.496094 L 106.371094 41.984375 L 109.613281 43.339844 L 112.859375 44.726562 L 116.101562 46.1875 L 119.34375 47.671875 L 122.589844 49.089844 L 125.832031 50.597656 L 129.078125 52.035156 L 135.5625 54.957031 L 138.808594 56.378906 L 142.050781 57.617188 L 145.296875 59 L 148.539062 60.222656 L 151.785156 61.476562 L 155.027344 62.859375 L 158.269531 64.058594 L 161.515625 65.253906 L 164.757812 66.476562 L 168.003906 67.761719 L 171.246094 68.691406 L 174.488281 69.667969 L 177.734375 70.8125 L 180.976562 71.832031 L 184.222656 72.730469 L 187.464844 73.605469 L 190.707031 74.429688 L 193.953125 75.429688 L 197.195312 76.195312 L 200.441406 77.050781 L 203.683594 77.898438 L 206.929688 78.527344 L 210.171875 79.371094 L 213.414062 80.042969 L 216.660156 80.503906 L 219.902344 81 L 223.148438 81.480469 L 226.390625 81.765625 L 229.632812 82.289062 L 232.878906 82.71875 L 236.121094 82.988281 L 239.367188 83.269531 L 242.609375 83.636719 L 245.851562 83.847656 L 249.097656 84.0625 L 252.339844 84.328125 L 255.585938 84.449219 L 258.828125 84.683594 L 262.074219 84.820312 L 265.316406 84.964844 L 268.558594 84.863281 L 271.804688 85.035156 L 275.046875 85.007812 L 278.292969 85.421875 L 281.535156 85.359375 L 284.777344 85.535156 L 288.023438 85.535156 L 291.265625 85.832031 L 294.511719 85.984375 L 297.753906 85.820312 L 300.996094 85.550781 L 304.242188 85.355469 L 307.484375 85.1875 L 310.730469 85.144531 L 313.972656 85.050781 L 317.21875 84.960938 L 320.460938 85.050781 L 323.703125 85.160156 L 326.949219 85.167969 L 330.191406 85.105469 L 333.4375 85.15625 L 336.679688 85.1875 L 339.921875 85.183594 L 339.921875 170.746094 L 336.679688 169.089844 L 333.4375 167.675781 L 330.191406 166.066406 L 326.949219 164.546875 L 323.703125 163.097656 L 320.460938 161.652344 L 317.21875 160.210938 L 313.972656 158.945312 L 310.730469 157.320312 L 307.484375 156.054688 L 304.242188 154.640625 L 300.996094 153.328125 L 297.753906 151.917969 L 294.511719 150.355469 L 291.265625 148.902344 L 288.023438 147.441406 L 284.777344 145.851562 L 281.535156 144.238281 L 278.292969 142.839844 L 275.046875 141.039062 L 271.804688 139.640625 L 268.558594 137.953125 L 265.316406 136.277344 L 262.074219 134.945312 L 258.828125 133.515625 L 255.585938 132 L 252.339844 130.667969 L 249.097656 129.226562 L 245.851562 127.992188 L 242.609375 126.59375 L 239.367188 125.277344 L 236.121094 123.824219 L 232.878906 122.597656 L 229.632812 121.480469 L 226.390625 120.488281 L 223.148438 119.613281 L 219.902344 118.605469 L 216.660156 117.644531 L 213.414062 116.75 L 210.171875 115.992188 L 206.929688 115.125 L 203.683594 114.292969 L 200.441406 113.546875 L 197.195312 112.816406 L 193.953125 112.136719 L 190.707031 111.308594 L 187.464844 110.601562 L 184.222656 110.273438 L 180.976562 109.722656 L 177.734375 109.1875 L 174.488281 108.550781 L 171.246094 108.160156 L 168.003906 107.792969 L 164.757812 107.339844 L 161.515625 107.003906 L 158.269531 106.945312 L 155.027344 106.820312 L 151.785156 106.496094 L 148.539062 106.039062 L 145.296875 105.773438 L 142.050781 105.671875 L 138.808594 105.800781 L 135.5625 105.738281 L 132.320312 105.535156 L 129.078125 105.28125 L 125.832031 105.238281 L 122.589844 105.117188 L 119.34375 105.015625 L 116.101562 104.738281 L 112.859375 104.789062 L 109.613281 104.777344 L 106.371094 104.640625 L 103.125 104.683594 L 99.882812 104.769531 L 96.640625 104.707031 L 93.394531 104.710938 L 90.152344 104.714844 L 86.90625 104.878906 L 83.664062 104.734375 L 80.417969 104.800781 L 77.175781 104.773438 L 73.933594 104.65625 L 70.6875 104.71875 L 67.445312 104.910156 L 64.199219 105.039062 L 60.957031 105.167969 L 57.714844 105.089844 L 54.46875 105.171875 L 51.226562 104.960938 L 47.980469 104.902344 Z M 47.980469 13.347656 "/>
<path fill="none" stroke-width="2.667446" stroke-linecap="butt" stroke-linejoin="round" stroke="rgb(0%, 0%, 0%)" stroke-opacity="0.8" stroke-miterlimit="10" d="M 47.980469 59.71875 L 51.226562 60.476562 L 54.46875 61.234375 L 57.714844 61.992188 L 60.957031 62.753906 L 64.199219 63.511719 L 67.445312 64.269531 L 70.6875 65.027344 L 73.933594 65.785156 L 77.175781 66.542969 L 80.417969 67.304688 L 83.664062 68.0625 L 86.90625 68.820312 L 90.152344 69.578125 L 93.394531 70.335938 L 96.640625 71.09375 L 99.882812 71.855469 L 103.125 72.613281 L 106.371094 73.371094 L 109.613281 74.128906 L 112.859375 74.886719 L 116.101562 75.644531 L 119.34375 76.40625 L 122.589844 77.164062 L 125.832031 77.921875 L 129.078125 78.679688 L 132.320312 79.4375 L 135.5625 80.199219 L 138.808594 80.957031 L 142.050781 81.714844 L 145.296875 82.472656 L 148.539062 83.230469 L 151.785156 83.988281 L 155.027344 84.75 L 158.269531 85.507812 L 161.515625 86.265625 L 164.757812 87.023438 L 168.003906 87.78125 L 171.246094 88.539062 L 174.488281 89.300781 L 177.734375 90.058594 L 180.976562 90.816406 L 184.222656 91.574219 L 190.707031 93.089844 L 193.953125 93.851562 L 197.195312 94.609375 L 200.441406 95.367188 L 203.683594 96.125 L 206.929688 96.882812 L 210.171875 97.640625 L 213.414062 98.402344 L 216.660156 99.160156 L 219.902344 99.917969 L 223.148438 100.675781 L 229.632812 102.191406 L 232.878906 102.953125 L 236.121094 103.710938 L 239.367188 104.46875 L 245.851562 105.984375 L 249.097656 106.742188 L 252.339844 107.503906 L 255.585938 108.261719 L 258.828125 109.019531 L 262.074219 109.777344 L 268.558594 111.292969 L 271.804688 112.054688 L 275.046875 112.8125 L 278.292969 113.570312 L 284.777344 115.085938 L 288.023438 115.847656 L 291.265625 116.605469 L 294.511719 117.363281 L 300.996094 118.878906 L 304.242188 119.636719 L 307.484375 120.398438 L 310.730469 121.15625 L 313.972656 121.914062 L 317.21875 122.671875 L 323.703125 124.1875 L 326.949219 124.949219 L 330.191406 125.707031 L 333.4375 126.464844 L 339.921875 127.980469 "/>
<path fill="none" stroke-width="0.533489" stroke-linecap="butt" stroke-linejoin="round" stroke="rgb(70.196078%, 70.196078%, 70.196078%)" stroke-opacity="1" stroke-miterlimit="10" d="M 33.386719 178.613281 L 33.386719 5.480469 "/>
<g fill="rgb(30.196078%, 30.196078%, 30.196078%)" fill-opacity="1">
<use xlink:href="#glyph-0-1" x="23.453125" y="165.916992"/>
</g>
<g fill="rgb(30.196078%, 30.196078%, 30.196078%)" fill-opacity="1">
<use xlink:href="#glyph-0-2" x="23.453125" y="121.291992"/>
</g>
<g fill="rgb(30.196078%, 30.196078%, 30.196078%)" fill-opacity="1">
<use xlink:href="#glyph-0-3" x="23.453125" y="76.670898"/>
</g>
<g fill="rgb(30.196078%, 30.196078%, 30.196078%)" fill-opacity="1">
<use xlink:href="#glyph-0-4" x="23.453125" y="32.045898"/>
</g>
<path fill="none" stroke-width="0.533489" stroke-linecap="butt" stroke-linejoin="round" stroke="rgb(70.196078%, 70.196078%, 70.196078%)" stroke-opacity="1" stroke-miterlimit="10" d="M 30.644531 162.640625 L 33.386719 162.640625 "/>
<path fill="none" stroke-width="0.533489" stroke-linecap="butt" stroke-linejoin="round" stroke="rgb(70.196078%, 70.196078%, 70.196078%)" stroke-opacity="1" stroke-miterlimit="10" d="M 30.644531 118.015625 L 33.386719 118.015625 "/>
<path fill="none" stroke-width="0.533489" stroke-linecap="butt" stroke-linejoin="round" stroke="rgb(70.196078%, 70.196078%, 70.196078%)" stroke-opacity="1" stroke-miterlimit="10" d="M 30.644531 73.394531 L 33.386719 73.394531 "/>
<path fill="none" stroke-width="0.533489" stroke-linecap="butt" stroke-linejoin="round" stroke="rgb(70.196078%, 70.196078%, 70.196078%)" stroke-opacity="1" stroke-miterlimit="10" d="M 30.644531 28.769531 L 33.386719 28.769531 "/>
<path fill="none" stroke-width="0.533489" stroke-linecap="butt" stroke-linejoin="round" stroke="rgb(70.196078%, 70.196078%, 70.196078%)" stroke-opacity="1" stroke-miterlimit="10" d="M 33.386719 178.613281 L 354.519531 178.613281 "/>
<path fill="none" stroke-width="0.533489" stroke-linecap="butt" stroke-linejoin="round" stroke="rgb(70.196078%, 70.196078%, 70.196078%)" stroke-opacity="1" stroke-miterlimit="10" d="M 47.980469 181.355469 L 47.980469 178.613281 "/>
<path fill="none" stroke-width="0.533489" stroke-linecap="butt" stroke-linejoin="round" stroke="rgb(70.196078%, 70.196078%, 70.196078%)" stroke-opacity="1" stroke-miterlimit="10" d="M 129.078125 181.355469 L 129.078125 178.613281 "/>
<path fill="none" stroke-width="0.533489" stroke-linecap="butt" stroke-linejoin="round" stroke="rgb(70.196078%, 70.196078%, 70.196078%)" stroke-opacity="1" stroke-miterlimit="10" d="M 210.171875 181.355469 L 210.171875 178.613281 "/>
<path fill="none" stroke-width="0.533489" stroke-linecap="butt" stroke-linejoin="round" stroke="rgb(70.196078%, 70.196078%, 70.196078%)" stroke-opacity="1" stroke-miterlimit="10" d="M 291.265625 181.355469 L 291.265625 178.613281 "/>
<g fill="rgb(30.196078%, 30.196078%, 30.196078%)" fill-opacity="1">
<use xlink:href="#glyph-0-2" x="37.980469" y="190.323242"/>
<use xlink:href="#glyph-0-5" x="42.980469" y="190.323242"/>
<use xlink:href="#glyph-0-1" x="47.980469" y="190.323242"/>
<use xlink:href="#glyph-0-1" x="52.980469" y="190.323242"/>
</g>
<g fill="rgb(30.196078%, 30.196078%, 30.196078%)" fill-opacity="1">
<use xlink:href="#glyph-0-2" x="119.078125" y="190.323242"/>
<use xlink:href="#glyph-0-5" x="124.078125" y="190.323242"/>
<use xlink:href="#glyph-0-3" x="129.078125" y="190.323242"/>
<use xlink:href="#glyph-0-6" x="134.078125" y="190.323242"/>
</g>
<g fill="rgb(30.196078%, 30.196078%, 30.196078%)" fill-opacity="1">
<use xlink:href="#glyph-0-2" x="200.171875" y="190.323242"/>
<use xlink:href="#glyph-0-5" x="205.171875" y="190.323242"/>
<use xlink:href="#glyph-0-6" x="210.171875" y="190.323242"/>
<use xlink:href="#glyph-0-1" x="215.171875" y="190.323242"/>
</g>
<g fill="rgb(30.196078%, 30.196078%, 30.196078%)" fill-opacity="1">
<use xlink:href="#glyph-0-2" x="281.265625" y="190.323242"/>
<use xlink:href="#glyph-0-5" x="286.265625" y="190.323242"/>
<use xlink:href="#glyph-0-7" x="291.265625" y="190.323242"/>
<use xlink:href="#glyph-0-6" x="296.265625" y="190.323242"/>
</g>
<g fill="rgb(0%, 0%, 0%)" fill-opacity="1">
<use xlink:href="#glyph-1-1" x="184.953125" y="206.990234"/>
<use xlink:href="#glyph-1-2" x="190.953125" y="206.990234"/>
<use xlink:href="#glyph-1-3" x="196.953125" y="206.990234"/>
</g>
<g fill="rgb(0%, 0%, 0%)" fill-opacity="1">
<use xlink:href="#glyph-2-1" x="12.951172" y="112.546875"/>
<use xlink:href="#glyph-2-2" x="12.951172" y="106.546875"/>
<use xlink:href="#glyph-2-3" x="12.951172" y="100.546875"/>
<use xlink:href="#glyph-2-4" x="12.951172" y="97.546875"/>
<use xlink:href="#glyph-2-5" x="12.951172" y="95.546875"/>
<use xlink:href="#glyph-2-6" x="12.951172" y="86.546875"/>
<use xlink:href="#glyph-2-3" x="12.951172" y="80.546875"/>
<use xlink:href="#glyph-2-1" x="12.951172" y="77.546875"/>
</g>
</svg>
