<?xml version="1.0" encoding="UTF-8"?>
<svg xmlns="http://www.w3.org/2000/svg" xmlns:xlink="http://www.w3.org/1999/xlink" width="360pt" height="216pt" viewBox="0 0 360 216">
<defs>
<g>
<g id="glyph-0-0">
<path d="M 0.28125 0 L 0.28125 -6.3125 L 5.296875 -6.3125 L 5.296875 0 Z M 4.5 -0.796875 L 4.5 -5.515625 L 1.078125 -5.515625 L 1.078125 -0.796875 Z M 4.5 -0.796875 "/>
</g>
<g id="glyph-0-1">
<path d="M 2.375 -6.15625 C 3.175781 -6.15625 3.753906 -5.828125 4.109375 -5.171875 C 4.378906 -4.660156 4.515625 -3.960938 4.515625 -3.078125 C 4.515625 -2.242188 4.390625 -1.554688 4.140625 -1.015625 C 3.785156 -0.222656 3.195312 0.171875 2.375 0.171875 C 1.632812 0.171875 1.082031 -0.148438 0.71875 -0.796875 C 0.425781 -1.328125 0.28125 -2.046875 0.28125 -2.953125 C 0.28125 -3.648438 0.367188 -4.25 0.546875 -4.75 C 0.878906 -5.6875 1.488281 -6.15625 2.375 -6.15625 Z M 2.375 -0.53125 C 2.769531 -0.53125 3.085938 -0.707031 3.328125 -1.0625 C 3.566406 -1.425781 3.6875 -2.085938 3.6875 -3.046875 C 3.6875 -3.753906 3.597656 -4.332031 3.421875 -4.78125 C 3.253906 -5.226562 2.921875 -5.453125 2.421875 -5.453125 C 1.972656 -5.453125 1.640625 -5.238281 1.421875 -4.8125 C 1.210938 -4.382812 1.109375 -3.753906 1.109375 -2.921875 C 1.109375 -2.296875 1.175781 -1.789062 1.3125 -1.40625 C 1.519531 -0.820312 1.875 -0.53125 2.375 -0.53125 Z M 2.375 -0.53125 "/>
</g>
<g id="glyph-0-2">
<path d="M 0.75 -0.9375 L 1.65625 -0.9375 L 1.65625 0 L 0.75 0 Z M 0.75 -0.9375 "/>
</g>
<g id="glyph-0-3">
<path d="M 0.28125 0 C 0.300781 -0.53125 0.40625 -0.988281 0.59375 -1.375 C 0.789062 -1.769531 1.164062 -2.128906 1.71875 -2.453125 L 2.546875 -2.921875 C 2.910156 -3.140625 3.164062 -3.328125 3.3125 -3.484375 C 3.550781 -3.710938 3.671875 -3.984375 3.671875 -4.296875 C 3.671875 -4.648438 3.5625 -4.929688 3.34375 -5.140625 C 3.132812 -5.359375 2.847656 -5.46875 2.484375 -5.46875 C 1.960938 -5.46875 1.597656 -5.265625 1.390625 -4.859375 C 1.285156 -4.648438 1.226562 -4.351562 1.21875 -3.96875 L 0.421875 -3.96875 C 0.429688 -4.5 0.53125 -4.9375 0.71875 -5.28125 C 1.050781 -5.875 1.644531 -6.171875 2.5 -6.171875 C 3.195312 -6.171875 3.707031 -5.976562 4.03125 -5.59375 C 4.363281 -5.21875 4.53125 -4.796875 4.53125 -4.328125 C 4.53125 -3.835938 4.351562 -3.414062 4 -3.0625 C 3.800781 -2.863281 3.441406 -2.617188 2.921875 -2.328125 L 2.34375 -2 C 2.0625 -1.84375 1.835938 -1.695312 1.671875 -1.5625 C 1.390625 -1.3125 1.210938 -1.035156 1.140625 -0.734375 L 4.5 -0.734375 L 4.5 0 Z M 0.28125 0 "/>
</g>
<g id="glyph-0-4">
<path d="M 1.09375 -1.5625 C 1.132812 -1.125 1.335938 -0.820312 1.703125 -0.65625 C 1.878906 -0.570312 2.09375 -0.53125 2.34375 -0.53125 C 2.800781 -0.53125 3.140625 -0.675781 3.359375 -0.96875 C 3.578125 -1.257812 3.6875 -1.582031 3.6875 -1.9375 C 3.6875 -2.363281 3.554688 -2.691406 3.296875 -2.921875 C 3.035156 -3.160156 2.71875 -3.28125 2.34375 -3.28125 C 2.082031 -3.28125 1.851562 -3.226562 1.65625 -3.125 C 1.46875 -3.019531 1.304688 -2.878906 1.171875 -2.703125 L 0.5 -2.734375 L 0.96875 -6.046875 L 4.171875 -6.046875 L 4.171875 -5.296875 L 1.5625 -5.296875 L 1.296875 -3.59375 C 1.429688 -3.695312 1.566406 -3.773438 1.703125 -3.828125 C 1.929688 -3.929688 2.195312 -3.984375 2.5 -3.984375 C 3.0625 -3.984375 3.535156 -3.800781 3.921875 -3.4375 C 4.316406 -3.070312 4.515625 -2.609375 4.515625 -2.046875 C 4.515625 -1.460938 4.332031 -0.945312 3.96875 -0.5 C 3.613281 -0.0625 3.046875 0.15625 2.265625 0.15625 C 1.753906 0.15625 1.304688 0.0117188 0.921875 -0.265625 C 0.546875 -0.546875 0.332031 -0.976562 0.28125 -1.5625 Z M 1.09375 -1.5625 "/>
</g>
<g id="glyph-0-5">
<path d="M 4.59375 -6.046875 L 4.59375 -5.375 C 4.394531 -5.175781 4.128906 -4.835938 3.796875 -4.359375 C 3.472656 -3.890625 3.1875 -3.378906 2.9375 -2.828125 C 2.6875 -2.296875 2.5 -1.8125 2.375 -1.375 C 2.289062 -1.082031 2.179688 -0.625 2.046875 0 L 1.203125 0 C 1.390625 -1.175781 1.816406 -2.34375 2.484375 -3.5 C 2.878906 -4.1875 3.289062 -4.773438 3.71875 -5.265625 L 0.328125 -5.265625 L 0.328125 -6.046875 Z M 4.59375 -6.046875 "/>
</g>
<g id="glyph-0-6">
<path d="M 0.84375 -4.359375 L 0.84375 -4.953125 C 1.394531 -5.003906 1.78125 -5.09375 2 -5.21875 C 2.226562 -5.34375 2.394531 -5.644531 2.5 -6.125 L 3.109375 -6.125 L 3.109375 0 L 2.296875 0 L 2.296875 -4.359375 Z M 0.84375 -4.359375 "/>
</g>
<g id="glyph-0-7">
<path d="M 1.171875 -1.484375 C 1.191406 -1.054688 1.351562 -0.757812 1.65625 -0.59375 C 1.820312 -0.507812 2 -0.46875 2.1875 -0.46875 C 2.5625 -0.46875 2.878906 -0.617188 3.140625 -0.921875 C 3.398438 -1.234375 3.582031 -1.863281 3.6875 -2.8125 C 3.519531 -2.539062 3.304688 -2.347656 3.046875 -2.234375 C 2.796875 -2.128906 2.523438 -2.078125 2.234375 -2.078125 C 1.640625 -2.078125 1.171875 -2.257812 0.828125 -2.625 C 0.484375 -2.988281 0.3125 -3.460938 0.3125 -4.046875 C 0.3125 -4.609375 0.476562 -5.097656 0.8125 -5.515625 C 1.15625 -5.941406 1.660156 -6.15625 2.328125 -6.15625 C 3.222656 -6.15625 3.84375 -5.753906 4.1875 -4.953125 C 4.375 -4.503906 4.46875 -3.945312 4.46875 -3.28125 C 4.46875 -2.53125 4.351562 -1.863281 4.125 -1.28125 C 3.75 -0.3125 3.113281 0.171875 2.21875 0.171875 C 1.625 0.171875 1.171875 0.0117188 0.859375 -0.296875 C 0.546875 -0.609375 0.390625 -1.003906 0.390625 -1.484375 Z M 2.34375 -2.75 C 2.644531 -2.75 2.921875 -2.847656 3.171875 -3.046875 C 3.429688 -3.253906 3.5625 -3.609375 3.5625 -4.109375 C 3.5625 -4.566406 3.445312 -4.90625 3.21875 -5.125 C 2.988281 -5.34375 2.695312 -5.453125 2.34375 -5.453125 C 1.96875 -5.453125 1.664062 -5.320312 1.4375 -5.0625 C 1.21875 -4.8125 1.109375 -4.476562 1.109375 -4.0625 C 1.109375 -3.65625 1.207031 -3.332031 1.40625 -3.09375 C 1.601562 -2.863281 1.914062 -2.75 2.34375 -2.75 Z M 2.34375 -2.75 "/>
</g>
<g id="glyph-0-8">
<path d="M 0.5625 -4.59375 L 1.328125 -4.59375 L 1.328125 -3.953125 C 1.515625 -4.171875 1.679688 -4.332031 1.828125 -4.4375 C 2.085938 -4.613281 2.378906 -4.703125 2.703125 -4.703125 C 3.066406 -4.703125 3.359375 -4.613281 3.578125 -4.4375 C 3.703125 -4.332031 3.816406 -4.179688 3.921875 -3.984375 C 4.097656 -4.222656 4.300781 -4.398438 4.53125 -4.515625 C 4.757812 -4.640625 5.019531 -4.703125 5.3125 -4.703125 C 5.925781 -4.703125 6.347656 -4.476562 6.578125 -4.03125 C 6.691406 -3.789062 6.75 -3.46875 6.75 -3.0625 L 6.75 0 L 5.953125 0 L 5.953125 -3.203125 C 5.953125 -3.503906 5.875 -3.710938 5.71875 -3.828125 C 5.570312 -3.941406 5.382812 -4 5.15625 -4 C 4.851562 -4 4.59375 -3.894531 4.375 -3.6875 C 4.15625 -3.488281 4.046875 -3.148438 4.046875 -2.671875 L 4.046875 0 L 3.265625 0 L 3.265625 -3 C 3.265625 -3.3125 3.226562 -3.539062 3.15625 -3.6875 C 3.039062 -3.894531 2.820312 -4 2.5 -4 C 2.207031 -4 1.941406 -3.882812 1.703125 -3.65625 C 1.460938 -3.4375 1.34375 -3.03125 1.34375 -2.4375 L 1.34375 0 L 0.5625 0 Z M 0.5625 -4.59375 "/>
</g>
<g id="glyph-0-9">
<path d="M 1.15625 -1.21875 C 1.15625 -1 1.238281 -0.820312 1.40625 -0.6875 C 1.570312 -0.5625 1.765625 -0.5 1.984375 -0.5 C 2.253906 -0.5 2.519531 -0.5625 2.78125 -0.6875 C 3.207031 -0.894531 3.421875 -1.238281 3.421875 -1.71875 L 3.421875 -2.34375 C 3.328125 -2.28125 3.203125 -2.226562 3.046875 -2.1875 C 2.898438 -2.144531 2.753906 -2.117188 2.609375 -2.109375 L 2.140625 -2.046875 C 1.867188 -2.003906 1.660156 -1.945312 1.515625 -1.875 C 1.273438 -1.738281 1.15625 -1.519531 1.15625 -1.21875 Z M 3.03125 -2.78125 C 3.207031 -2.8125 3.328125 -2.890625 3.390625 -3.015625 C 3.421875 -3.078125 3.4375 -3.175781 3.4375 -3.3125 C 3.4375 -3.570312 3.34375 -3.757812 3.15625 -3.875 C 2.96875 -4 2.703125 -4.0625 2.359375 -4.0625 C 1.953125 -4.0625 1.664062 -3.953125 1.5 -3.734375 C 1.40625 -3.609375 1.34375 -3.429688 1.3125 -3.203125 L 0.59375 -3.203125 C 0.601562 -3.765625 0.785156 -4.15625 1.140625 -4.375 C 1.492188 -4.601562 1.90625 -4.71875 2.375 -4.71875 C 2.914062 -4.71875 3.351562 -4.613281 3.6875 -4.40625 C 4.019531 -4.195312 4.1875 -3.875 4.1875 -3.4375 L 4.1875 -0.796875 C 4.1875 -0.710938 4.203125 -0.644531 4.234375 -0.59375 C 4.273438 -0.550781 4.347656 -0.53125 4.453125 -0.53125 C 4.484375 -0.53125 4.519531 -0.53125 4.5625 -0.53125 C 4.601562 -0.53125 4.648438 -0.535156 4.703125 -0.546875 L 4.703125 0.015625 C 4.578125 0.0546875 4.484375 0.078125 4.421875 0.078125 C 4.359375 0.0859375 4.273438 0.09375 4.171875 0.09375 C 3.898438 0.09375 3.707031 0 3.59375 -0.1875 C 3.53125 -0.28125 3.484375 -0.421875 3.453125 -0.609375 C 3.296875 -0.398438 3.070312 -0.21875 2.78125 -0.0625 C 2.488281 0.0820312 2.160156 0.15625 1.796875 0.15625 C 1.367188 0.15625 1.019531 0.0234375 0.75 -0.234375 C 0.488281 -0.492188 0.359375 -0.816406 0.359375 -1.203125 C 0.359375 -1.628906 0.488281 -1.957031 0.75 -2.1875 C 1.019531 -2.425781 1.367188 -2.578125 1.796875 -2.640625 Z M 2.390625 -4.71875 Z M 2.390625 -4.71875 "/>
</g>
<g id="glyph-0-10">
<path d="M 0.5625 -4.59375 L 1.296875 -4.59375 L 1.296875 -3.953125 C 1.515625 -4.210938 1.742188 -4.398438 1.984375 -4.515625 C 2.234375 -4.640625 2.507812 -4.703125 2.8125 -4.703125 C 3.457031 -4.703125 3.894531 -4.472656 4.125 -4.015625 C 4.25 -3.765625 4.3125 -3.410156 4.3125 -2.953125 L 4.3125 0 L 3.53125 0 L 3.53125 -2.90625 C 3.53125 -3.175781 3.488281 -3.398438 3.40625 -3.578125 C 3.269531 -3.859375 3.019531 -4 2.65625 -4 C 2.476562 -4 2.328125 -3.984375 2.203125 -3.953125 C 1.992188 -3.890625 1.8125 -3.765625 1.65625 -3.578125 C 1.519531 -3.421875 1.429688 -3.257812 1.390625 -3.09375 C 1.359375 -2.9375 1.34375 -2.707031 1.34375 -2.40625 L 1.34375 0 L 0.5625 0 Z M 2.390625 -4.71875 Z M 2.390625 -4.71875 "/>
</g>
<g id="glyph-0-11">
<path d="M 0.921875 -4.59375 L 1.8125 -0.96875 L 2.703125 -4.59375 L 3.578125 -4.59375 L 4.46875 -1 L 5.421875 -4.59375 L 6.1875 -4.59375 L 4.859375 0 L 4.046875 0 L 3.109375 -3.5625 L 2.203125 0 L 1.40625 0 L 0.078125 -4.59375 Z M 0.921875 -4.59375 "/>
</g>
<g id="glyph-0-12">
<path d="M 2.390625 -0.5 C 2.898438 -0.5 3.25 -0.691406 3.4375 -1.078125 C 3.632812 -1.460938 3.734375 -1.894531 3.734375 -2.375 C 3.734375 -2.800781 3.664062 -3.148438 3.53125 -3.421875 C 3.3125 -3.847656 2.9375 -4.0625 2.40625 -4.0625 C 1.925781 -4.0625 1.578125 -3.878906 1.359375 -3.515625 C 1.148438 -3.160156 1.046875 -2.726562 1.046875 -2.21875 C 1.046875 -1.726562 1.148438 -1.316406 1.359375 -0.984375 C 1.578125 -0.660156 1.921875 -0.5 2.390625 -0.5 Z M 2.421875 -4.734375 C 3.015625 -4.734375 3.515625 -4.535156 3.921875 -4.140625 C 4.335938 -3.742188 4.546875 -3.160156 4.546875 -2.390625 C 4.546875 -1.648438 4.363281 -1.035156 4 -0.546875 C 3.632812 -0.0664062 3.070312 0.171875 2.3125 0.171875 C 1.6875 0.171875 1.1875 -0.0390625 0.8125 -0.46875 C 0.4375 -0.894531 0.25 -1.472656 0.25 -2.203125 C 0.25 -2.972656 0.445312 -3.585938 0.84375 -4.046875 C 1.238281 -4.503906 1.765625 -4.734375 2.421875 -4.734375 Z M 2.390625 -4.71875 Z M 2.390625 -4.71875 "/>
</g>
<g id="glyph-1-0">
<path d="M 0.359375 0 L 0.359375 -7.890625 L 6.625 -7.890625 L 6.625 0 Z M 5.625 -0.984375 L 5.625 -6.90625 L 1.34375 -6.90625 L 1.34375 -0.984375 Z M 5.625 -0.984375 "/>
</g>
<g id="glyph-1-1">
<path d="M 1.328125 -2.8125 C 1.328125 -2.195312 1.457031 -1.679688 1.71875 -1.265625 C 1.976562 -0.847656 2.394531 -0.640625 2.96875 -0.640625 C 3.414062 -0.640625 3.78125 -0.832031 4.0625 -1.21875 C 4.351562 -1.601562 4.5 -2.15625 4.5 -2.875 C 4.5 -3.601562 4.347656 -4.140625 4.046875 -4.484375 C 3.753906 -4.835938 3.390625 -5.015625 2.953125 -5.015625 C 2.472656 -5.015625 2.082031 -4.828125 1.78125 -4.453125 C 1.476562 -4.078125 1.328125 -3.53125 1.328125 -2.8125 Z M 2.78125 -5.859375 C 3.21875 -5.859375 3.585938 -5.765625 3.890625 -5.578125 C 4.054688 -5.472656 4.25 -5.285156 4.46875 -5.015625 L 4.46875 -7.921875 L 5.390625 -7.921875 L 5.390625 0 L 4.53125 0 L 4.53125 -0.796875 C 4.300781 -0.441406 4.03125 -0.1875 3.71875 -0.03125 C 3.414062 0.121094 3.066406 0.203125 2.671875 0.203125 C 2.023438 0.203125 1.46875 -0.0625 1 -0.59375 C 0.53125 -1.132812 0.296875 -1.851562 0.296875 -2.75 C 0.296875 -3.59375 0.507812 -4.320312 0.9375 -4.9375 C 1.363281 -5.550781 1.976562 -5.859375 2.78125 -5.859375 Z M 2.78125 -5.859375 "/>
</g>
<g id="glyph-1-2">
<path d="M 2.984375 -0.625 C 3.628906 -0.625 4.070312 -0.863281 4.3125 -1.34375 C 4.550781 -1.832031 4.671875 -2.375 4.671875 -2.96875 C 4.671875 -3.507812 4.582031 -3.945312 4.40625 -4.28125 C 4.132812 -4.8125 3.664062 -5.078125 3 -5.078125 C 2.40625 -5.078125 1.972656 -4.847656 1.703125 -4.390625 C 1.441406 -3.941406 1.3125 -3.398438 1.3125 -2.765625 C 1.3125 -2.148438 1.441406 -1.640625 1.703125 -1.234375 C 1.972656 -0.828125 2.398438 -0.625 2.984375 -0.625 Z M 3.03125 -5.921875 C 3.769531 -5.921875 4.394531 -5.671875 4.90625 -5.171875 C 5.414062 -4.679688 5.671875 -3.957031 5.671875 -3 C 5.671875 -2.070312 5.445312 -1.304688 5 -0.703125 C 4.550781 -0.0976562 3.851562 0.203125 2.90625 0.203125 C 2.113281 0.203125 1.484375 -0.0625 1.015625 -0.59375 C 0.546875 -1.125 0.3125 -1.84375 0.3125 -2.75 C 0.3125 -3.71875 0.554688 -4.488281 1.046875 -5.0625 C 1.535156 -5.632812 2.195312 -5.921875 3.03125 -5.921875 Z M 3 -5.890625 Z M 3 -5.890625 "/>
</g>
<g id="glyph-1-3">
<path d="M 0.640625 -7.921875 L 1.578125 -7.921875 L 1.578125 -5.046875 C 1.785156 -5.328125 2.035156 -5.539062 2.328125 -5.6875 C 2.617188 -5.832031 2.9375 -5.90625 3.28125 -5.90625 C 4 -5.90625 4.582031 -5.65625 5.03125 -5.15625 C 5.476562 -4.664062 5.703125 -3.941406 5.703125 -2.984375 C 5.703125 -2.078125 5.476562 -1.320312 5.03125 -0.71875 C 4.59375 -0.113281 3.984375 0.1875 3.203125 0.1875 C 2.765625 0.1875 2.394531 0.0742188 2.09375 -0.140625 C 1.914062 -0.265625 1.726562 -0.460938 1.53125 -0.734375 L 1.53125 0 L 0.640625 0 Z M 3.140625 -0.671875 C 3.671875 -0.671875 4.0625 -0.878906 4.3125 -1.296875 C 4.570312 -1.710938 4.703125 -2.257812 4.703125 -2.9375 C 4.703125 -3.539062 4.570312 -4.039062 4.3125 -4.4375 C 4.0625 -4.832031 3.679688 -5.03125 3.171875 -5.03125 C 2.734375 -5.03125 2.347656 -4.867188 2.015625 -4.546875 C 1.679688 -4.222656 1.515625 -3.6875 1.515625 -2.9375 C 1.515625 -2.394531 1.582031 -1.957031 1.71875 -1.625 C 1.976562 -0.988281 2.453125 -0.671875 3.140625 -0.671875 Z M 3.140625 -0.671875 "/>
</g>
<g id="glyph-1-4">
<path d="M 2.734375 -5.859375 C 3.191406 -5.859375 3.585938 -5.742188 3.921875 -5.515625 C 4.097656 -5.390625 4.285156 -5.207031 4.484375 -4.96875 L 4.484375 -5.703125 L 5.375 -5.703125 L 5.375 -0.46875 C 5.375 0.257812 5.265625 0.835938 5.046875 1.265625 C 4.648438 2.046875 3.894531 2.4375 2.78125 2.4375 C 2.15625 2.4375 1.628906 2.296875 1.203125 2.015625 C 0.785156 1.734375 0.550781 1.300781 0.5 0.71875 L 1.484375 0.71875 C 1.535156 0.96875 1.628906 1.164062 1.765625 1.3125 C 1.984375 1.53125 2.328125 1.640625 2.796875 1.640625 C 3.535156 1.640625 4.019531 1.375 4.25 0.84375 C 4.382812 0.539062 4.445312 -0.00390625 4.4375 -0.796875 C 4.25 -0.503906 4.015625 -0.285156 3.734375 -0.140625 C 3.460938 -0.00390625 3.109375 0.0625 2.671875 0.0625 C 2.046875 0.0625 1.5 -0.15625 1.03125 -0.59375 C 0.5625 -1.03125 0.328125 -1.757812 0.328125 -2.78125 C 0.328125 -3.75 0.5625 -4.503906 1.03125 -5.046875 C 1.5 -5.585938 2.066406 -5.859375 2.734375 -5.859375 Z M 4.484375 -2.90625 C 4.484375 -3.613281 4.332031 -4.140625 4.03125 -4.484375 C 3.738281 -4.828125 3.367188 -5 2.921875 -5 C 2.234375 -5 1.765625 -4.679688 1.515625 -4.046875 C 1.390625 -3.703125 1.328125 -3.253906 1.328125 -2.703125 C 1.328125 -2.054688 1.457031 -1.5625 1.71875 -1.21875 C 1.976562 -0.882812 2.332031 -0.71875 2.78125 -0.71875 C 3.46875 -0.71875 3.957031 -1.03125 4.25 -1.65625 C 4.40625 -2.007812 4.484375 -2.425781 4.484375 -2.90625 Z M 2.859375 -5.890625 Z M 2.859375 -5.890625 "/>
</g>
<g id="glyph-1-5">
<path d="M 3.109375 -5.875 C 3.515625 -5.875 3.90625 -5.78125 4.28125 -5.59375 C 4.664062 -5.40625 4.960938 -5.15625 5.171875 -4.84375 C 5.359375 -4.5625 5.484375 -4.222656 5.546875 -3.828125 C 5.609375 -3.566406 5.640625 -3.144531 5.640625 -2.5625 L 1.421875 -2.5625 C 1.441406 -1.976562 1.578125 -1.507812 1.828125 -1.15625 C 2.085938 -0.8125 2.488281 -0.640625 3.03125 -0.640625 C 3.539062 -0.640625 3.945312 -0.804688 4.25 -1.140625 C 4.414062 -1.328125 4.535156 -1.550781 4.609375 -1.8125 L 5.5625 -1.8125 C 5.53125 -1.59375 5.441406 -1.351562 5.296875 -1.09375 C 5.160156 -0.832031 5.003906 -0.625 4.828125 -0.46875 C 4.535156 -0.175781 4.175781 0.0195312 3.75 0.125 C 3.507812 0.175781 3.242188 0.203125 2.953125 0.203125 C 2.234375 0.203125 1.625 -0.0546875 1.125 -0.578125 C 0.632812 -1.097656 0.390625 -1.828125 0.390625 -2.765625 C 0.390625 -3.691406 0.640625 -4.441406 1.140625 -5.015625 C 1.640625 -5.585938 2.296875 -5.875 3.109375 -5.875 Z M 4.640625 -3.328125 C 4.609375 -3.753906 4.519531 -4.09375 4.375 -4.34375 C 4.101562 -4.800781 3.660156 -5.03125 3.046875 -5.03125 C 2.597656 -5.03125 2.222656 -4.867188 1.921875 -4.546875 C 1.628906 -4.234375 1.472656 -3.828125 1.453125 -3.328125 Z M 3.015625 -5.890625 Z M 3.015625 -5.890625 "/>
</g>
<g id="glyph-1-6">
<path d="M 0.703125 -5.75 L 1.625 -5.75 L 1.625 -4.9375 C 1.894531 -5.269531 2.179688 -5.507812 2.484375 -5.65625 C 2.796875 -5.800781 3.132812 -5.875 3.5 -5.875 C 4.320312 -5.875 4.875 -5.59375 5.15625 -5.03125 C 5.3125 -4.71875 5.390625 -4.269531 5.390625 -3.6875 L 5.390625 0 L 4.421875 0 L 4.421875 -3.625 C 4.421875 -3.976562 4.367188 -4.257812 4.265625 -4.46875 C 4.085938 -4.832031 3.773438 -5.015625 3.328125 -5.015625 C 3.097656 -5.015625 2.910156 -4.988281 2.765625 -4.9375 C 2.492188 -4.863281 2.257812 -4.707031 2.0625 -4.46875 C 1.90625 -4.28125 1.800781 -4.082031 1.75 -3.875 C 1.695312 -3.675781 1.671875 -3.390625 1.671875 -3.015625 L 1.671875 0 L 0.703125 0 Z M 2.984375 -5.890625 Z M 2.984375 -5.890625 "/>
</g>
<g id="glyph-1-7">
<path d="M 0.734375 -5.75 L 1.65625 -5.75 L 1.65625 -4.765625 C 1.726562 -4.953125 1.910156 -5.179688 2.203125 -5.453125 C 2.492188 -5.734375 2.832031 -5.875 3.21875 -5.875 C 3.238281 -5.875 3.269531 -5.875 3.3125 -5.875 C 3.351562 -5.875 3.425781 -5.867188 3.53125 -5.859375 L 3.53125 -4.828125 C 3.476562 -4.835938 3.425781 -4.84375 3.375 -4.84375 C 3.320312 -4.851562 3.269531 -4.859375 3.21875 -4.859375 C 2.726562 -4.859375 2.351562 -4.703125 2.09375 -4.390625 C 1.832031 -4.078125 1.703125 -3.71875 1.703125 -3.3125 L 1.703125 0 L 0.734375 0 Z M 0.734375 -5.75 "/>
</g>
<g id="glyph-2-0">
<path d="M 0 -0.359375 L -7.890625 -0.359375 L -7.890625 -6.625 L 0 -6.625 Z M -0.984375 -5.625 L -6.90625 -5.625 L -6.90625 -1.34375 L -0.984375 -1.34375 Z M -0.984375 -5.625 "/>
</g>
<g id="glyph-2-1">
<path d="M -5.875 -3.109375 C -5.875 -3.515625 -5.78125 -3.90625 -5.59375 -4.28125 C -5.40625 -4.664062 -5.15625 -4.960938 -4.84375 -5.171875 C -4.5625 -5.359375 -4.222656 -5.484375 -3.828125 -5.546875 C -3.566406 -5.609375 -3.144531 -5.640625 -2.5625 -5.640625 L -2.5625 -1.421875 C -1.976562 -1.441406 -1.507812 -1.578125 -1.15625 -1.828125 C -0.8125 -2.085938 -0.640625 -2.488281 -0.640625 -3.03125 C -0.640625 -3.539062 -0.804688 -3.945312 -1.140625 -4.25 C -1.328125 -4.414062 -1.550781 -4.535156 -1.8125 -4.609375 L -1.8125 -5.5625 C -1.59375 -5.53125 -1.351562 -5.441406 -1.09375 -5.296875 C -0.832031 -5.160156 -0.625 -5.003906 -0.46875 -4.828125 C -0.175781 -4.535156 0.0195312 -4.175781 0.125 -3.75 C 0.175781 -3.507812 0.203125 -3.242188 0.203125 -2.953125 C 0.203125 -2.234375 -0.0546875 -1.625 -0.578125 -1.125 C -1.097656 -0.632812 -1.828125 -0.390625 -2.765625 -0.390625 C -3.691406 -0.390625 -4.441406 -0.640625 -5.015625 -1.140625 C -5.585938 -1.640625 -5.875 -2.296875 -5.875 -3.109375 Z M -3.328125 -4.640625 C -3.753906 -4.609375 -4.09375 -4.519531 -4.34375 -4.375 C -4.800781 -4.101562 -5.03125 -3.660156 -5.03125 -3.046875 C -5.03125 -2.597656 -4.867188 -2.222656 -4.546875 -1.921875 C -4.234375 -1.628906 -3.828125 -1.472656 -3.328125 -1.453125 Z M -5.890625 -3.015625 Z M -5.890625 -3.015625 "/>
</g>
<g id="glyph-2-2">
<path d="M -1.8125 -1.28125 C -1.488281 -1.3125 -1.238281 -1.394531 -1.0625 -1.53125 C -0.75 -1.769531 -0.59375 -2.191406 -0.59375 -2.796875 C -0.59375 -3.148438 -0.671875 -3.460938 -0.828125 -3.734375 C -0.984375 -4.003906 -1.222656 -4.140625 -1.546875 -4.140625 C -1.796875 -4.140625 -1.984375 -4.03125 -2.109375 -3.8125 C -2.191406 -3.675781 -2.285156 -3.398438 -2.390625 -2.984375 L -2.578125 -2.21875 C -2.703125 -1.726562 -2.835938 -1.367188 -2.984375 -1.140625 C -3.253906 -0.722656 -3.617188 -0.515625 -4.078125 -0.515625 C -4.617188 -0.515625 -5.054688 -0.707031 -5.390625 -1.09375 C -5.734375 -1.488281 -5.90625 -2.019531 -5.90625 -2.6875 C -5.90625 -3.550781 -5.648438 -4.175781 -5.140625 -4.5625 C -4.816406 -4.800781 -4.46875 -4.914062 -4.09375 -4.90625 L -4.09375 -4 C -4.3125 -3.976562 -4.507812 -3.898438 -4.6875 -3.765625 C -4.945312 -3.546875 -5.078125 -3.160156 -5.078125 -2.609375 C -5.078125 -2.242188 -5.003906 -1.96875 -4.859375 -1.78125 C -4.722656 -1.59375 -4.539062 -1.5 -4.3125 -1.5 C -4.0625 -1.5 -3.863281 -1.625 -3.71875 -1.875 C -3.625 -2.007812 -3.539062 -2.21875 -3.46875 -2.5 L -3.3125 -3.140625 C -3.144531 -3.835938 -2.984375 -4.300781 -2.828125 -4.53125 C -2.578125 -4.914062 -2.191406 -5.109375 -1.671875 -5.109375 C -1.148438 -5.109375 -0.703125 -4.910156 -0.328125 -4.515625 C 0.0351562 -4.128906 0.21875 -3.539062 0.21875 -2.75 C 0.21875 -1.894531 0.0234375 -1.285156 -0.359375 -0.921875 C -0.753906 -0.566406 -1.238281 -0.378906 -1.8125 -0.359375 Z M -5.890625 -2.71875 Z M -5.890625 -2.71875 "/>
</g>
<g id="glyph-2-3">
<path d="M -7.359375 -0.90625 L -7.359375 -1.875 L -5.75 -1.875 L -5.75 -2.796875 L -4.96875 -2.796875 L -4.96875 -1.875 L -1.203125 -1.875 C -1.003906 -1.875 -0.875 -1.941406 -0.8125 -2.078125 C -0.769531 -2.160156 -0.75 -2.285156 -0.75 -2.453125 C -0.75 -2.503906 -0.75 -2.554688 -0.75 -2.609375 C -0.75 -2.660156 -0.753906 -2.722656 -0.765625 -2.796875 L 0 -2.796875 C 0.03125 -2.679688 0.0507812 -2.5625 0.0625 -2.4375 C 0.0820312 -2.320312 0.09375 -2.195312 0.09375 -2.0625 C 0.09375 -1.613281 -0.0195312 -1.304688 -0.25 -1.140625 C -0.488281 -0.984375 -0.789062 -0.90625 -1.15625 -0.90625 L -4.96875 -0.90625 L -4.96875 -0.125 L -5.75 -0.125 L -5.75 -0.90625 Z M -7.359375 -0.90625 "/>
</g>
<g id="glyph-2-4">
<path d="M -5.71875 -0.703125 L -5.71875 -1.6875 L 0 -1.6875 L 0 -0.703125 Z M -7.890625 -0.703125 L -7.890625 -1.6875 L -6.796875 -1.6875 L -6.796875 -0.703125 Z M -7.890625 -0.703125 "/>
</g>
<g id="glyph-2-5">
<path d="M -5.75 -0.703125 L -5.75 -1.671875 L -4.9375 -1.671875 C -5.21875 -1.898438 -5.421875 -2.101562 -5.546875 -2.28125 C -5.765625 -2.601562 -5.875 -2.96875 -5.875 -3.375 C -5.875 -3.832031 -5.765625 -4.203125 -5.546875 -4.484375 C -5.410156 -4.640625 -5.21875 -4.78125 -4.96875 -4.90625 C -5.28125 -5.125 -5.507812 -5.378906 -5.65625 -5.671875 C -5.800781 -5.960938 -5.875 -6.285156 -5.875 -6.640625 C -5.875 -7.410156 -5.597656 -7.9375 -5.046875 -8.21875 C -4.742188 -8.375 -4.335938 -8.453125 -3.828125 -8.453125 L 0 -8.453125 L 0 -7.4375 L -4 -7.4375 C -4.382812 -7.4375 -4.644531 -7.34375 -4.78125 -7.15625 C -4.925781 -6.96875 -5 -6.734375 -5 -6.453125 C -5 -6.078125 -4.867188 -5.75 -4.609375 -5.46875 C -4.359375 -5.195312 -3.9375 -5.0625 -3.34375 -5.0625 L 0 -5.0625 L 0 -4.078125 L -3.75 -4.078125 C -4.144531 -4.078125 -4.429688 -4.03125 -4.609375 -3.9375 C -4.878906 -3.789062 -5.015625 -3.519531 -5.015625 -3.125 C -5.015625 -2.757812 -4.867188 -2.425781 -4.578125 -2.125 C -4.296875 -1.820312 -3.785156 -1.671875 -3.046875 -1.671875 L 0 -1.671875 L 0 -0.703125 Z M -5.75 -0.703125 "/>
</g>
<g id="glyph-2-6">
<path d="M -1.53125 -1.453125 C -1.25 -1.453125 -1.023438 -1.550781 -0.859375 -1.75 C -0.703125 -1.957031 -0.625 -2.203125 -0.625 -2.484375 C -0.625 -2.816406 -0.703125 -3.144531 -0.859375 -3.46875 C -1.117188 -4.007812 -1.550781 -4.28125 -2.15625 -4.28125 L -2.921875 -4.28125 C -2.847656 -4.15625 -2.785156 -4 -2.734375 -3.8125 C -2.691406 -3.632812 -2.65625 -3.453125 -2.625 -3.265625 L -2.5625 -2.6875 C -2.507812 -2.332031 -2.4375 -2.066406 -2.34375 -1.890625 C -2.164062 -1.597656 -1.894531 -1.453125 -1.53125 -1.453125 Z M -3.484375 -3.796875 C -3.515625 -4.015625 -3.609375 -4.160156 -3.765625 -4.234375 C -3.847656 -4.273438 -3.972656 -4.296875 -4.140625 -4.296875 C -4.460938 -4.296875 -4.695312 -4.175781 -4.84375 -3.9375 C -5 -3.707031 -5.078125 -3.375 -5.078125 -2.9375 C -5.078125 -2.4375 -4.941406 -2.082031 -4.671875 -1.875 C -4.515625 -1.75 -4.289062 -1.671875 -4 -1.640625 L -4 -0.734375 C -4.707031 -0.753906 -5.195312 -0.984375 -5.46875 -1.421875 C -5.75 -1.867188 -5.890625 -2.382812 -5.890625 -2.96875 C -5.890625 -3.644531 -5.757812 -4.191406 -5.5 -4.609375 C -5.25 -5.035156 -4.847656 -5.25 -4.296875 -5.25 L -0.984375 -5.25 C -0.890625 -5.25 -0.8125 -5.265625 -0.75 -5.296875 C -0.6875 -5.335938 -0.65625 -5.425781 -0.65625 -5.5625 C -0.65625 -5.601562 -0.65625 -5.648438 -0.65625 -5.703125 C -0.664062 -5.765625 -0.675781 -5.820312 -0.6875 -5.875 L 0.03125 -5.875 C 0.0703125 -5.726562 0.0976562 -5.613281 0.109375 -5.53125 C 0.117188 -5.457031 0.125 -5.351562 0.125 -5.21875 C 0.125 -4.882812 0.00390625 -4.640625 -0.234375 -4.484375 C -0.359375 -4.410156 -0.535156 -4.359375 -0.765625 -4.328125 C -0.503906 -4.128906 -0.28125 -3.84375 -0.09375 -3.46875 C 0.0898438 -3.101562 0.1875 -2.695312 0.1875 -2.25 C 0.1875 -1.71875 0.0234375 -1.28125 -0.296875 -0.9375 C -0.617188 -0.601562 -1.023438 -0.4375 -1.515625 -0.4375 C -2.046875 -0.4375 -2.457031 -0.601562 -2.75 -0.9375 C -3.039062 -1.269531 -3.222656 -1.707031 -3.296875 -2.25 Z M -5.890625 -2.984375 Z M -5.890625 -2.984375 "/>
</g>
</g>
<clipPath id="clip-0">
<path clip-rule="nonzero" d="M 45.386719 5.480469 L 281.84375 5.480469 L 281.84375 178.617188 L 45.386719 178.617188 Z M 45.386719 5.480469 "/>
</clipPath>
</defs>
<rect x="-36" y="-21.6" width="432" height="259.2" fill="rgb(100%, 100%, 100%)" fill-opacity="1"/>
<rect x="-36" y="-21.6" width="432" height="259.2" fill="rgb(100%, 100%, 100%)" fill-opacity="1"/>
<path fill="none" stroke-width="1.066978" stroke-linecap="round" stroke-linejoin="round" stroke="rgb(100%, 100%, 100%)" stroke-opacity="1" stroke-miterlimit="10" d="M 0 216 L 360 216 L 360 0 L 0 0 Z M 0 216 "/>
<g clip-path="url(#clip-0)">
<path fill-rule="nonzero" fill="rgb(100%, 100%, 100%)" fill-opacity="1" d="M 45.386719 178.613281 L 281.84375 178.613281 L 281.84375 5.476562 L 45.386719 5.476562 Z M 45.386719 178.613281 "/>
</g>
<path fill-rule="nonzero" fill="rgb(65.098039%, 65.098039%, 65.098039%)" fill-opacity="0.8" d="M 56.132812 162.828125 L 58.519531 162.460938 L 60.910156 162.078125 L 63.296875 161.679688 L 65.6875 161.261719 L 68.074219 160.828125 L 70.464844 160.375 L 72.851562 159.902344 L 75.242188 159.40625 L 77.628906 158.894531 L 80.019531 158.359375 L 82.40625 157.800781 L 84.792969 157.222656 L 87.183594 156.617188 L 89.570312 155.988281 L 91.960938 155.335938 L 94.347656 154.65625 L 96.738281 153.949219 L 99.125 153.214844 L 101.515625 152.453125 L 103.902344 151.664062 L 106.289062 150.839844 L 108.679688 149.988281 L 111.066406 149.105469 L 113.457031 148.191406 L 115.84375 147.242188 L 118.234375 146.261719 L 120.621094 145.246094 L 123.011719 144.195312 L 125.398438 143.105469 L 127.785156 141.984375 L 130.175781 140.824219 L 132.5625 139.628906 L 134.953125 138.394531 L 137.339844 137.121094 L 139.730469 135.808594 L 142.117188 134.460938 L 144.507812 133.070312 L 146.894531 131.644531 L 149.285156 130.175781 L 151.671875 128.667969 L 154.058594 127.121094 L 156.449219 125.535156 L 158.835938 123.90625 L 161.226562 122.242188 L 163.613281 120.542969 L 166.003906 118.800781 L 168.390625 117.027344 L 170.78125 115.214844 L 173.167969 113.371094 L 175.554688 111.492188 L 177.945312 109.585938 L 180.332031 107.648438 L 182.722656 105.683594 L 185.109375 103.695312 L 187.5 101.6875 L 189.886719 99.65625 L 192.277344 97.613281 L 194.664062 95.554688 L 197.050781 93.488281 L 199.441406 91.414062 L 201.828125 89.332031 L 204.21875 87.253906 L 206.605469 85.179688 L 208.996094 83.109375 L 211.382812 81.046875 L 213.773438 78.996094 L 216.160156 76.964844 L 218.550781 74.949219 L 220.9375 72.953125 L 223.324219 70.980469 L 225.714844 69.035156 L 228.101562 67.121094 L 230.492188 65.234375 L 232.878906 63.382812 L 235.269531 61.5625 L 237.65625 59.78125 L 240.046875 58.035156 L 242.433594 56.332031 L 244.820312 54.664062 L 247.210938 53.042969 L 249.597656 51.460938 L 251.988281 49.921875 L 254.375 48.425781 L 256.765625 46.972656 L 259.152344 45.566406 L 261.542969 44.199219 L 263.929688 42.878906 L 266.316406 41.601562 L 268.707031 40.367188 L 271.09375 39.179688 L 271.09375 46.832031 L 268.707031 48.109375 L 266.316406 49.421875 L 263.929688 50.769531 L 261.542969 52.152344 L 259.152344 53.570312 L 256.765625 55.019531 L 254.375 56.503906 L 251.988281 58.023438 L 249.597656 59.574219 L 247.210938 61.15625 L 244.820312 62.769531 L 242.433594 64.410156 L 240.046875 66.082031 L 237.65625 67.78125 L 235.269531 69.507812 L 232.878906 71.261719 L 230.492188 73.035156 L 228.101562 74.835938 L 225.714844 76.652344 L 223.324219 78.492188 L 220.9375 80.347656 L 218.550781 82.21875 L 216.160156 84.105469 L 213.773438 86 L 211.382812 87.910156 L 208.996094 89.824219 L 206.605469 91.746094 L 204.21875 93.671875 L 201.828125 95.597656 L 199.441406 97.523438 L 197.050781 99.449219 L 194.664062 101.371094 L 192.277344 103.285156 L 189.886719 105.195312 L 187.5 107.089844 L 185.109375 108.976562 L 182.722656 110.847656 L 180.332031 112.703125 L 177.945312 114.539062 L 175.554688 116.355469 L 173.167969 118.152344 L 170.78125 119.921875 L 168.390625 121.667969 L 166.003906 123.386719 L 163.613281 125.078125 L 161.226562 126.738281 L 158.835938 128.363281 L 156.449219 129.957031 L 154.058594 131.515625 L 151.671875 133.039062 L 149.285156 134.523438 L 146.894531 135.96875 L 144.507812 137.378906 L 142.117188 138.75 L 139.730469 140.078125 L 137.339844 141.367188 L 134.953125 142.617188 L 132.5625 143.828125 L 130.175781 144.996094 L 127.785156 146.125 L 125.398438 147.21875 L 123.011719 148.269531 L 120.621094 149.28125 L 118.234375 150.257812 L 115.84375 151.195312 L 113.457031 152.097656 L 111.066406 152.964844 L 108.679688 153.796875 L 106.289062 154.59375 L 103.902344 155.359375 L 101.515625 156.089844 L 99.125 156.792969 L 96.738281 157.464844 L 94.347656 158.105469 L 91.960938 158.71875 L 89.570312 159.308594 L 87.183594 159.867188 L 84.792969 160.402344 L 82.40625 160.914062 L 80.019531 161.402344 L 77.628906 161.867188 L 75.242188 162.308594 L 72.851562 162.730469 L 70.464844 163.132812 L 68.074219 163.515625 L 65.6875 163.882812 L 63.296875 164.230469 L 60.910156 164.558594 L 58.519531 164.875 L 56.132812 165.171875 Z M 56.132812 162.828125 "/>
<path fill-rule="nonzero" fill="rgb(65.098039%, 65.098039%, 65.098039%)" fill-opacity="0.8" d="M 56.132812 170.1875 L 58.519531 170.140625 L 60.910156 170.09375 L 63.296875 170.039062 L 65.6875 169.980469 L 68.074219 169.917969 L 70.464844 169.851562 L 72.851562 169.777344 L 75.242188 169.695312 L 77.628906 169.609375 L 80.019531 169.519531 L 82.40625 169.417969 L 84.792969 169.308594 L 87.183594 169.191406 L 89.570312 169.0625 L 91.960938 168.925781 L 94.347656 168.777344 L 96.738281 168.617188 L 99.125 168.445312 L 101.515625 168.257812 L 103.902344 168.054688 L 106.289062 167.835938 L 108.679688 167.597656 L 111.066406 167.34375 L 113.457031 167.070312 L 115.84375 166.773438 L 118.234375 166.453125 L 120.621094 166.105469 L 123.011719 165.734375 L 125.398438 165.332031 L 127.785156 164.898438 L 130.175781 164.429688 L 132.5625 163.929688 L 134.953125 163.386719 L 137.339844 162.804688 L 139.730469 162.179688 L 142.117188 161.503906 L 144.507812 160.78125 L 146.894531 160.003906 L 149.285156 159.171875 L 151.671875 158.277344 L 154.058594 157.316406 L 156.449219 156.289062 L 158.835938 155.191406 L 161.226562 154.011719 L 163.613281 152.753906 L 166.003906 151.410156 L 168.390625 149.972656 L 170.78125 148.445312 L 173.167969 146.8125 L 175.554688 145.078125 L 177.945312 143.234375 L 180.332031 141.273438 L 182.722656 139.199219 L 185.109375 137 L 187.5 134.679688 L 189.886719 132.234375 L 192.277344 129.664062 L 194.664062 126.96875 L 197.050781 124.15625 L 199.441406 121.222656 L 201.828125 118.179688 L 204.21875 115.03125 L 206.605469 111.792969 L 208.996094 108.464844 L 211.382812 105.066406 L 213.773438 101.609375 L 216.160156 98.105469 L 218.550781 94.570312 L 220.9375 91.019531 L 223.324219 87.464844 L 225.714844 83.925781 L 228.101562 80.414062 L 230.492188 76.945312 L 232.878906 73.53125 L 235.269531 70.191406 L 237.65625 66.925781 L 240.046875 63.757812 L 242.433594 60.683594 L 244.820312 57.722656 L 247.210938 54.871094 L 249.597656 52.144531 L 251.988281 49.535156 L 254.375 47.050781 L 256.765625 44.691406 L 259.152344 42.460938 L 261.542969 40.351562 L 263.929688 38.367188 L 266.316406 36.5 L 268.707031 34.75 L 271.09375 33.113281 L 271.09375 42.976562 L 268.707031 44.9375 L 266.316406 46.992188 L 263.929688 49.144531 L 261.542969 51.394531 L 259.152344 53.738281 L 256.765625 56.175781 L 254.375 58.703125 L 251.988281 61.320312 L 249.597656 64.019531 L 247.210938 66.800781 L 244.820312 69.652344 L 242.433594 72.574219 L 240.046875 75.554688 L 237.65625 78.585938 L 235.269531 81.664062 L 232.878906 84.777344 L 230.492188 87.917969 L 228.101562 91.074219 L 225.714844 94.238281 L 223.324219 97.398438 L 220.9375 100.546875 L 218.550781 103.671875 L 216.160156 106.769531 L 213.773438 109.824219 L 211.382812 112.835938 L 208.996094 115.789062 L 206.605469 118.679688 L 204.21875 121.5 L 201.828125 124.246094 L 199.441406 126.914062 L 197.050781 129.496094 L 194.664062 131.992188 L 192.277344 134.398438 L 189.886719 136.710938 L 187.5 138.925781 L 185.109375 141.046875 L 182.722656 143.066406 L 180.332031 144.988281 L 177.945312 146.808594 L 175.554688 148.53125 L 173.167969 150.160156 L 170.78125 151.691406 L 168.390625 153.125 L 166.003906 154.472656 L 163.613281 155.730469 L 161.226562 156.90625 L 158.835938 157.996094 L 156.449219 159.011719 L 154.058594 159.957031 L 151.671875 160.828125 L 149.285156 161.636719 L 146.894531 162.382812 L 144.507812 163.074219 L 142.117188 163.710938 L 139.730469 164.296875 L 137.339844 164.835938 L 134.953125 165.332031 L 132.5625 165.789062 L 130.175781 166.207031 L 127.785156 166.59375 L 125.398438 166.949219 L 123.011719 167.273438 L 120.621094 167.570312 L 118.234375 167.839844 L 115.84375 168.089844 L 113.457031 168.320312 L 111.066406 168.527344 L 108.679688 168.71875 L 106.289062 168.894531 L 103.902344 169.054688 L 101.515625 169.203125 L 99.125 169.335938 L 96.738281 169.457031 L 94.347656 169.570312 L 91.960938 169.671875 L 89.570312 169.765625 L 87.183594 169.851562 L 84.792969 169.929688 L 82.40625 170 L 80.019531 170.066406 L 77.628906 170.125 L 75.242188 170.179688 L 72.851562 170.226562 L 70.464844 170.273438 L 68.074219 170.316406 L 65.6875 170.351562 L 63.296875 170.386719 L 60.910156 170.417969 L 58.519531 170.445312 L 56.132812 170.472656 Z M 56.132812 170.1875 "/>
<path fill="none" stroke-width="2.667446" stroke-linecap="butt" stroke-linejoin="round" stroke="rgb(26.666667%, 46.666667%, 66.666667%)" stroke-opacity="0.8" stroke-miterlimit="10" d="M 56.132812 170.355469 L 58.519531 170.320312 L 60.910156 170.28125 L 63.296875 170.242188 L 65.6875 170.195312 L 68.074219 170.148438 L 70.464844 170.09375 L 72.851562 170.039062 L 75.242188 169.972656 L 77.628906 169.90625 L 80.019531 169.832031 L 82.40625 169.75 L 84.792969 169.660156 L 87.183594 169.566406 L 89.570312 169.460938 L 91.960938 169.347656 L 94.347656 169.222656 L 96.738281 169.089844 L 99.125 168.941406 L 101.515625 168.785156 L 103.902344 168.613281 L 106.289062 168.421875 L 108.679688 168.21875 L 111.066406 168 L 113.457031 167.757812 L 115.84375 167.496094 L 118.234375 167.210938 L 120.621094 166.90625 L 123.011719 166.570312 L 125.398438 166.207031 L 127.785156 165.816406 L 130.175781 165.390625 L 132.5625 164.929688 L 134.953125 164.429688 L 137.339844 163.890625 L 139.730469 163.308594 L 142.117188 162.679688 L 144.507812 162 L 146.894531 161.265625 L 149.285156 160.472656 L 151.671875 159.621094 L 154.058594 158.703125 L 156.449219 157.714844 L 158.835938 156.65625 L 161.226562 155.519531 L 163.613281 154.300781 L 166.003906 153 L 168.390625 151.605469 L 170.78125 150.121094 L 173.167969 148.539062 L 175.554688 146.855469 L 177.945312 145.070312 L 180.332031 143.179688 L 182.722656 141.179688 L 185.109375 139.070312 L 187.5 136.851562 L 189.886719 134.519531 L 192.277344 132.082031 L 194.664062 129.53125 L 197.050781 126.875 L 199.441406 124.117188 L 201.828125 121.261719 L 204.21875 118.316406 L 206.605469 115.285156 L 208.996094 112.171875 L 211.382812 108.996094 L 213.773438 105.757812 L 216.160156 102.46875 L 218.550781 99.144531 L 220.9375 95.796875 L 223.324219 92.433594 L 225.714844 89.066406 L 228.101562 85.714844 L 230.492188 82.382812 L 232.878906 79.085938 L 235.269531 75.835938 L 237.65625 72.644531 L 240.046875 69.515625 L 242.433594 66.464844 L 244.820312 63.5 L 247.210938 60.621094 L 249.597656 57.839844 L 251.988281 55.164062 L 254.375 52.589844 L 256.765625 50.125 L 259.152344 47.765625 L 261.542969 45.523438 L 263.929688 43.386719 L 266.316406 41.363281 L 268.707031 39.449219 L 271.09375 37.636719 "/>
<path fill="none" stroke-width="2.667446" stroke-linecap="butt" stroke-linejoin="round" stroke="rgb(93.333333%, 40%, 46.666667%)" stroke-opacity="0.8" stroke-miterlimit="10" d="M 56.132812 164.097656 L 58.519531 163.765625 L 60.910156 163.417969 L 63.296875 163.054688 L 65.6875 162.671875 L 68.074219 162.273438 L 70.464844 161.855469 L 72.851562 161.417969 L 75.242188 160.957031 L 77.628906 160.480469 L 80.019531 159.980469 L 82.40625 159.457031 L 84.792969 158.910156 L 87.183594 158.339844 L 89.570312 157.746094 L 91.960938 157.125 L 94.347656 156.476562 L 96.738281 155.800781 L 99.125 155.09375 L 101.515625 154.363281 L 103.902344 153.597656 L 106.289062 152.800781 L 108.679688 151.976562 L 111.066406 151.117188 L 113.457031 150.222656 L 115.84375 149.296875 L 118.234375 148.332031 L 120.621094 147.335938 L 123.011719 146.300781 L 125.398438 145.230469 L 127.785156 144.121094 L 130.175781 142.972656 L 132.5625 141.785156 L 134.953125 140.5625 L 137.339844 139.296875 L 139.730469 137.996094 L 142.117188 136.652344 L 144.507812 135.273438 L 146.894531 133.851562 L 149.285156 132.390625 L 151.671875 130.890625 L 154.058594 129.355469 L 156.449219 127.78125 L 158.835938 126.167969 L 161.226562 124.523438 L 163.613281 122.839844 L 166.003906 121.125 L 168.390625 119.375 L 170.78125 117.59375 L 173.167969 115.785156 L 175.554688 113.945312 L 177.945312 112.082031 L 180.332031 110.195312 L 182.722656 108.285156 L 185.109375 106.351562 L 187.5 104.402344 L 189.886719 102.4375 L 192.277344 100.460938 L 194.664062 98.472656 L 197.050781 96.476562 L 199.441406 94.472656 L 201.828125 92.464844 L 204.21875 90.460938 L 206.605469 88.457031 L 208.996094 86.457031 L 211.382812 84.464844 L 213.773438 82.480469 L 216.160156 80.511719 L 218.550781 78.554688 L 220.9375 76.613281 L 223.324219 74.695312 L 225.714844 72.796875 L 228.101562 70.921875 L 230.492188 69.074219 L 232.878906 67.253906 L 235.269531 65.460938 L 237.65625 63.699219 L 240.046875 61.96875 L 242.433594 60.269531 L 244.820312 58.609375 L 247.210938 56.980469 L 249.597656 55.390625 L 251.988281 53.839844 L 254.375 52.324219 L 256.765625 50.847656 L 259.152344 49.410156 L 261.542969 48.011719 L 263.929688 46.65625 L 266.316406 45.335938 L 268.707031 44.054688 L 271.09375 42.816406 "/>
<path fill="none" stroke-width="0.533489" stroke-linecap="butt" stroke-linejoin="round" stroke="rgb(70.196078%, 70.196078%, 70.196078%)" stroke-opacity="1" stroke-miterlimit="10" d="M 45.386719 178.613281 L 45.386719 5.480469 "/>
<g fill="rgb(30.196078%, 30.196078%, 30.196078%)" fill-opacity="1">
<use xlink:href="#glyph-0-1" x="23.453125" y="174.022461"/>
<use xlink:href="#glyph-0-2" x="28.453125" y="174.022461"/>
<use xlink:href="#glyph-0-1" x="30.453125" y="174.022461"/>
<use xlink:href="#glyph-0-1" x="35.453125" y="174.022461"/>
</g>
<g fill="rgb(30.196078%, 30.196078%, 30.196078%)" fill-opacity="1">
<use xlink:href="#glyph-0-1" x="23.453125" y="134.670898"/>
<use xlink:href="#glyph-0-2" x="28.453125" y="134.670898"/>
<use xlink:href="#glyph-0-3" x="30.453125" y="134.670898"/>
<use xlink:href="#glyph-0-4" x="35.453125" y="134.670898"/>
</g>
<g fill="rgb(30.196078%, 30.196078%, 30.196078%)" fill-opacity="1">
<use xlink:href="#glyph-0-1" x="23.453125" y="95.323242"/>
<use xlink:href="#glyph-0-2" x="28.453125" y="95.323242"/>
<use xlink:href="#glyph-0-4" x="30.453125" y="95.323242"/>
<use xlink:href="#glyph-0-1" x="35.453125" y="95.323242"/>
</g>
<g fill="rgb(30.196078%, 30.196078%, 30.196078%)" fill-opacity="1">
<use xlink:href="#glyph-0-1" x="23.453125" y="55.975586"/>
<use xlink:href="#glyph-0-2" x="28.453125" y="55.975586"/>
<use xlink:href="#glyph-0-5" x="30.453125" y="55.975586"/>
<use xlink:href="#glyph-0-4" x="35.453125" y="55.975586"/>
</g>
<g fill="rgb(30.196078%, 30.196078%, 30.196078%)" fill-opacity="1">
<use xlink:href="#glyph-0-6" x="23.453125" y="16.624023"/>
<use xlink:href="#glyph-0-2" x="28.453125" y="16.624023"/>
<use xlink:href="#glyph-0-1" x="30.453125" y="16.624023"/>
<use xlink:href="#glyph-0-1" x="35.453125" y="16.624023"/>
</g>
<path fill="none" stroke-width="0.533489" stroke-linecap="butt" stroke-linejoin="round" stroke="rgb(70.196078%, 70.196078%, 70.196078%)" stroke-opacity="1" stroke-miterlimit="10" d="M 42.644531 170.746094 L 45.386719 170.746094 "/>
<path fill="none" stroke-width="0.533489" stroke-linecap="butt" stroke-linejoin="round" stroke="rgb(70.196078%, 70.196078%, 70.196078%)" stroke-opacity="1" stroke-miterlimit="10" d="M 42.644531 131.394531 L 45.386719 131.394531 "/>
<path fill="none" stroke-width="0.533489" stroke-linecap="butt" stroke-linejoin="round" stroke="rgb(70.196078%, 70.196078%, 70.196078%)" stroke-opacity="1" stroke-miterlimit="10" d="M 42.644531 92.046875 L 45.386719 92.046875 "/>
<path fill="none" stroke-width="0.533489" stroke-linecap="butt" stroke-linejoin="round" stroke="rgb(70.196078%, 70.196078%, 70.196078%)" stroke-opacity="1" stroke-miterlimit="10" d="M 42.644531 52.699219 L 45.386719 52.699219 "/>
<path fill="none" stroke-width="0.533489" stroke-linecap="butt" stroke-linejoin="round" stroke="rgb(70.196078%, 70.196078%, 70.196078%)" stroke-opacity="1" stroke-miterlimit="10" d="M 42.644531 13.347656 L 45.386719 13.347656 "/>
<path fill="none" stroke-width="0.533489" stroke-linecap="butt" stroke-linejoin="round" stroke="rgb(70.196078%, 70.196078%, 70.196078%)" stroke-opacity="1" stroke-miterlimit="10" d="M 45.386719 178.613281 L 281.84375 178.613281 "/>
<path fill="none" stroke-width="0.533489" stroke-linecap="butt" stroke-linejoin="round" stroke="rgb(70.196078%, 70.196078%, 70.196078%)" stroke-opacity="1" stroke-miterlimit="10" d="M 56.132812 181.355469 L 56.132812 178.613281 "/>
<path fill="none" stroke-width="0.533489" stroke-linecap="butt" stroke-linejoin="round" stroke="rgb(70.196078%, 70.196078%, 70.196078%)" stroke-opacity="1" stroke-miterlimit="10" d="M 115.84375 181.355469 L 115.84375 178.613281 "/>
<path fill="none" stroke-width="0.533489" stroke-linecap="butt" stroke-linejoin="round" stroke="rgb(70.196078%, 70.196078%, 70.196078%)" stroke-opacity="1" stroke-miterlimit="10" d="M 175.554688 181.355469 L 175.554688 178.613281 "/>
<path fill="none" stroke-width="0.533489" stroke-linecap="butt" stroke-linejoin="round" stroke="rgb(70.196078%, 70.196078%, 70.196078%)" stroke-opacity="1" stroke-miterlimit="10" d="M 235.269531 181.355469 L 235.269531 178.613281 "/>
<g fill="rgb(30.196078%, 30.196078%, 30.196078%)" fill-opacity="1">
<use xlink:href="#glyph-0-6" x="46.132812" y="190.323242"/>
<use xlink:href="#glyph-0-7" x="51.132812" y="190.323242"/>
<use xlink:href="#glyph-0-1" x="56.132812" y="190.323242"/>
<use xlink:href="#glyph-0-1" x="61.132812" y="190.323242"/>
</g>
<g fill="rgb(30.196078%, 30.196078%, 30.196078%)" fill-opacity="1">
<use xlink:href="#glyph-0-6" x="105.84375" y="190.323242"/>
<use xlink:href="#glyph-0-7" x="110.84375" y="190.323242"/>
<use xlink:href="#glyph-0-3" x="115.84375" y="190.323242"/>
<use xlink:href="#glyph-0-4" x="120.84375" y="190.323242"/>
</g>
<g fill="rgb(30.196078%, 30.196078%, 30.196078%)" fill-opacity="1">
<use xlink:href="#glyph-0-6" x="165.554688" y="190.323242"/>
<use xlink:href="#glyph-0-7" x="170.554688" y="190.323242"/>
<use xlink:href="#glyph-0-4" x="175.554688" y="190.323242"/>
<use xlink:href="#glyph-0-1" x="180.554688" y="190.323242"/>
</g>
<g fill="rgb(30.196078%, 30.196078%, 30.196078%)" fill-opacity="1">
<use xlink:href="#glyph-0-6" x="225.269531" y="190.323242"/>
<use xlink:href="#glyph-0-7" x="230.269531" y="190.323242"/>
<use xlink:href="#glyph-0-5" x="235.269531" y="190.323242"/>
<use xlink:href="#glyph-0-4" x="240.269531" y="190.323242"/>
</g>
<g fill="rgb(0%, 0%, 0%)" fill-opacity="1">
<use xlink:href="#glyph-1-1" x="154.613281" y="206.990234"/>
<use xlink:href="#glyph-1-2" x="160.613281" y="206.990234"/>
<use xlink:href="#glyph-1-3" x="166.613281" y="206.990234"/>
</g>
<g fill="rgb(0%, 0%, 0%)" fill-opacity="1">
<use xlink:href="#glyph-2-1" x="12.951172" y="112.546875"/>
<use xlink:href="#glyph-2-2" x="12.951172" y="106.546875"/>
<use xlink:href="#glyph-2-3" x="12.951172" y="100.546875"/>
<use xlink:href="#glyph-2-4" x="12.951172" y="97.546875"/>
<use xlink:href="#glyph-2-5" x="12.951172" y="95.546875"/>
<use xlink:href="#glyph-2-6" x="12.951172" y="86.546875"/>
<use xlink:href="#glyph-2-3" x="12.951172" y="80.546875"/>
<use xlink:href="#glyph-2-1" x="12.951172" y="77.546875"/>
</g>
<path fill-rule="nonzero" fill="rgb(100%, 100%, 100%)" fill-opacity="1" d="M 292.800781 123.046875 L 354.519531 123.046875 L 354.519531 61.046875 L 292.800781 61.046875 Z M 292.800781 123.046875 "/>
<g fill="rgb(0%, 0%, 0%)" fill-opacity="1">
<use xlink:href="#glyph-1-4" x="298.28125" y="75.498047"/>
<use xlink:href="#glyph-1-5" x="304.28125" y="75.498047"/>
<use xlink:href="#glyph-1-6" x="310.28125" y="75.498047"/>
<use xlink:href="#glyph-1-1" x="316.28125" y="75.498047"/>
<use xlink:href="#glyph-1-5" x="322.28125" y="75.498047"/>
<use xlink:href="#glyph-1-7" x="328.28125" y="75.498047"/>
</g>
<path fill-rule="nonzero" fill="rgb(100%, 100%, 100%)" fill-opacity="1" d="M 298.28125 100.285156 L 315.5625 100.285156 L 315.5625 83.003906 L 298.28125 83.003906 Z M 298.28125 100.285156 "/>
<path fill-rule="nonzero" fill="rgb(65.098039%, 65.098039%, 65.098039%)" fill-opacity="0.8" d="M 298.28125 100.285156 L 315.5625 100.285156 L 315.5625 83.003906 L 298.28125 83.003906 Z M 298.28125 100.285156 "/>
<path fill="none" stroke-width="2.667446" stroke-linecap="butt" stroke-linejoin="round" stroke="rgb(26.666667%, 46.666667%, 66.666667%)" stroke-opacity="0.8" stroke-miterlimit="10" d="M 300.007812 91.648438 L 313.832031 91.648438 "/>
<path fill-rule="nonzero" fill="rgb(100%, 100%, 100%)" fill-opacity="1" d="M 298.28125 117.566406 L 315.5625 117.566406 L 315.5625 100.285156 L 298.28125 100.285156 Z M 298.28125 117.566406 "/>
<path fill-rule="nonzero" fill="rgb(65.098039%, 65.098039%, 65.098039%)" fill-opacity="0.8" d="M 298.28125 117.566406 L 315.5625 117.566406 L 315.5625 100.285156 L 298.28125 100.285156 Z M 298.28125 117.566406 "/>
<path fill="none" stroke-width="2.667446" stroke-linecap="butt" stroke-linejoin="round" stroke="rgb(93.333333%, 40%, 46.666667%)" stroke-opacity="0.8" stroke-miterlimit="10" d="M 300.007812 108.925781 L 313.832031 108.925781 "/>
<g fill="rgb(0%, 0%, 0%)" fill-opacity="1">
<use xlink:href="#glyph-0-8" x="321.042969" y="94.924805"/>
<use xlink:href="#glyph-0-9" x="328.042969" y="94.924805"/>
<use xlink:href="#glyph-0-10" x="333.042969" y="94.924805"/>
</g>
<g fill="rgb(0%, 0%, 0%)" fill-opacity="1">
<use xlink:href="#glyph-0-11" x="321.042969" y="112.202148"/>
<use xlink:href="#glyph-0-12" x="327.042969" y="112.202148"/>
<use xlink:href="#glyph-0-8" x="332.042969" y="112.202148"/>
<use xlink:href="#glyph-0-9" x="339.042969" y="112.202148"/>
<use xlink:href="#glyph-0-10" x="344.042969" y="112.202148"/>
</g>
</svg>
